<?xml version="1.0" encoding="UTF-8"?>
<!DOCTYPE svg PUBLIC "-//W3C//DTD SVG 1.1//EN" "http://www.w3.org/Graphics/SVG/1.1/DTD/svg11.dtd">
<svg version="1.1" xmlns="http://www.w3.org/2000/svg" xmlns:xlink="http://www.w3.org/1999/xlink" x="0px" y="0px" width="1111" height="932" viewBox="0, 0, 1111, 932">
  <g id="Background">
    <rect x="0" y="0" width="1111" height="932" fill="#000000" fill-opacity="0"/>
  </g>
  <g id="Brain Shape">
    <path d="M265.523,215.227 C293.088,198.224 278.344,201.373 304.627,195.076 C330.91,188.778 321.936,192.557 321.936,192.557 L349.501,178.073 L362.963,173.035 L376.425,167.368 L391.17,162.33 L407.837,157.292 C407.837,157.292 418.735,154.774 420.017,154.774 C421.299,154.774 434.12,150.995 434.12,150.995 C434.12,150.995 444.377,144.698 445.018,144.698 C445.659,144.698 458.481,142.179 458.481,142.179 L472.584,141.549 L486.687,139.66 L498.867,136.512 L514.252,135.252 C514.252,135.252 524.509,135.252 525.15,135.882 C525.791,136.512 538.612,136.512 538.612,136.512 C538.612,136.512 551.434,134.623 552.075,135.252 C552.716,135.882 566.178,139.031 566.178,139.031 L599.306,139.527 L608.922,141.101 L619.179,141.259 C619.179,141.259 637.289,144.092 637.449,144.25 C637.609,144.407 656.264,147.241 656.264,147.398 C656.264,147.556 668.54,150.232 668.54,150.232 L693.381,150.704 L705.08,156.844 L716.78,161.252 C716.78,161.252 720.947,165.345 721.267,165.345 C721.588,165.345 733.269,174.85 733.269,174.85 L749.295,182.617 C749.295,182.617 763.185,193.322 763.612,193.742 C764.04,194.161 774.724,207.385 774.724,207.385 C774.724,207.385 778.57,215.782 778.784,216.202 C778.998,216.621 789.896,227.327 790.109,227.536 C790.323,227.746 802.93,237.402 803.144,237.612 C803.358,237.822 809.127,240.761 809.555,241.18 C809.982,241.6 816.393,245.379 816.393,245.379 L824.299,252.096 C824.299,252.096 828.786,258.183 829.214,258.813 C829.641,259.442 833.06,266.579 833.06,266.579 L836.906,275.605 C836.906,275.605 839.257,280.853 839.471,281.063 C839.684,281.272 841.18,288.199 841.18,288.199 L845.026,296.386 L848.018,301.633 L851.864,308.141 C851.864,308.141 855.07,314.438 855.497,314.648 C855.924,314.858 859.343,320.525 859.343,320.525 L865.326,327.032 L869.386,334.589 L872.164,342.145 L874.515,349.912 L876.652,356.839 L879.002,361.877 L882.208,367.124 L885.413,378.669 L889.045,392.523 L890.969,402.598 L891.823,409.735 L891.823,415.193 L891.61,421.7 L892.464,428.627 L892.251,433.664 L889.045,438.702 L890.755,442.69 L890.541,446.259 L888.404,450.037 L883.703,455.495 L878.575,461.582 L872.592,467.459 L865.754,473.547 L859.771,477.535 L853.574,480.893 L847.163,483.622 L841.394,486.351 L831.992,488.03 L831.35,500.835 L828.359,513.429 L823.658,524.134 L820.239,532.74 L819.598,535.889 L819.598,544.915 L818.743,548.903 L817.034,552.891 L792.673,577.66 C792.673,577.66 785.194,584.587 785.194,584.587 C785.194,584.587 779.639,588.575 779.639,588.575 L777.288,590.674 L774.938,593.193 L772.587,596.552 L769.382,600.33 L762.116,606.191 L754.21,612.792 L744.594,618.382 L736.261,622.16 L726.645,625.939 L716.388,628.458 L708.481,630.347 L699.934,631.396 L692.669,630.977 L687.327,629.717 L682.412,629.717 L677.283,629.927 L673.01,630.977 L670.232,633.495 L669.377,636.434 L670.659,638.113 L678.779,640.632 L682.839,642.941 L686.044,646.3 L689.891,651.128 L692.669,653.436 L696.942,658.054 L700.789,661.413 C700.789,661.413 703.567,663.722 703.78,664.142 C703.994,664.561 705.704,665.821 705.704,665.821 L692.455,675.057 L689.463,673.378 L685.831,671.279 L683.48,668.55 L679.848,666.031 L676.429,663.092 L673.01,660.153 L668.95,659.734 C668.95,659.734 664.728,658.894 664.728,659.104 C664.728,659.314 665.909,662.043 665.909,662.043 L668.095,664.561 L671.514,667.08 L674.505,667.92 L676.429,670.439 L678.565,673.168 L679.42,677.995 L680.275,682.613 L681.13,686.602 L681.984,690.38 L685.403,695.838 L689.036,700.875 L685.831,704.024 L682.412,706.333 L677.924,706.543 C677.924,706.543 675.147,705.493 675.147,705.493 C675.147,705.493 671.514,702.764 671.514,702.764 L668.522,700.665 L665.909,697.727 L663.821,695.208 C663.821,695.208 662.009,692.689 662.009,692.479 C662.009,692.269 662.009,688.701 662.009,688.701 L662.009,685.552 L662.009,682.613 L660.616,680.095 L658.906,679.255 L659.761,677.366 L657.48,675.267 L654.633,672.748 L650.759,668.13 L648.035,664.142 L645.872,658.894 L643.307,653.856 L639.675,649.028 L636.897,644.62 L632.196,641.052 L628.136,637.693 L622.58,633.285 L609.973,621.951 L600.357,612.792 L594.16,606.081 L589.031,598.861 L583.903,593.193 L578.347,585.847 L574.287,582.488 L570.441,581.858 C570.441,581.858 567.235,581.648 567.022,581.858 C566.808,582.068 563.817,582.068 563.817,582.068 L560.611,581.229 L558.261,579.969 L558.261,576.7 C558.261,576.7 550.354,571.153 550.568,570.943 C550.782,570.733 543.73,567.422 543.73,567.422 L534.755,561.288 L530.054,559.141 L521.507,552.891 L512.105,548.063 L506.335,544.705 L503.13,542.816 L496.719,547.854 L489.881,551.842 L484.753,556.25 L476.419,560.301 L469.154,562.782 L464.453,564.016 L453.769,564.226 L443.939,564.436 L436.887,562.782 L431.759,559.141 C431.759,559.141 428.126,553.731 428.126,553.731 C428.126,553.731 424.494,551.632 424.494,551.632 C424.494,551.632 418.297,549.323 418.297,549.113 C418.297,548.903 409.963,547.434 409.963,547.644 C409.963,547.854 398.424,545.335 398.424,545.335 C398.424,545.335 388.595,543.655 388.595,543.865 C388.595,544.075 380.261,542.186 380.261,542.186 L372.141,540.507 L365.089,537.568 L362.098,534.21 L361.243,530.221 L361.67,527.283 L357.824,522.245 C357.824,522.245 353.978,518.886 353.978,518.677 C353.978,518.467 350.559,514.898 350.559,514.898 C350.559,514.898 348.422,512.169 348.422,512.169 L346.285,507.132 L347.14,503.143 L348.208,498.945 L349.49,495.377 L348.849,492.228 C348.849,492.228 345.003,489.71 345.003,489.919 C345.003,490.129 336.455,488.03 336.455,488.03 L323.848,487.191 L315.942,487.191 L303.548,487.191 L294.787,487.191 C294.787,487.191 290.727,486.141 290.727,486.351 C290.727,486.561 287.521,485.301 287.308,485.301 C287.094,485.301 281.752,482.783 281.752,482.783 L266.58,472.287 L253.118,462.632 L243.289,452.556 L241.793,449.407 L239.87,446.889 C239.87,446.889 236.664,444.58 236.664,444.58 C236.664,444.58 234.1,443.11 234.314,442.9 C234.528,442.69 232.177,438.702 232.177,438.702 L226.835,432.825 C226.835,432.825 221.493,423.589 221.493,423.589 C221.493,423.589 217.219,414.773 217.219,414.773 L214.227,407.006 L209.313,396.091 L207.817,393.362 L209.526,386.855 C209.526,386.855 203.329,381.818 203.329,381.608 C203.329,381.398 199.911,374.891 199.911,374.891 L197.987,367.964 L197.133,358.938 L198.415,349.282 L198.842,342.775 C198.842,342.775 200.552,336.268 200.552,336.058 C200.552,335.848 201.193,330.181 201.62,330.391 C202.047,330.6 202.261,324.723 202.261,324.723 L200.338,318.216 L199.483,311.289 L201.62,306.461 L205.68,302.473 L210.808,299.115 C210.808,299.115 213.8,295.126 214.014,295.126 C214.227,295.126 215.51,289.879 215.51,289.879 L213.586,287.78 L212.304,282.742 L213.586,278.964 L217.005,273.506 L221.065,270.147 L225.339,266.579 L230.04,264.9 L233.459,262.591 L238.588,259.442 L241.793,253.145 L246.494,244.539 L249.058,239.081 C249.058,239.081 251.836,232.364 252.05,232.154 C252.263,231.945 255.682,226.487 255.682,226.487 L258.888,221.869 L265.523,215.227 z" fill-opacity="0" stroke="#000000" stroke-width="4" stroke-linecap="round" stroke-linejoin="round"/>
  </g>
  <g id="Gears">
    <path d="M632.106,617.042 L632.106,617.043 C632.412,617.138 632.275,617.1 632.515,617.162 z M621.615,611.199 L621.819,611.373 L621.82,611.372 C621.62,611.202 621.693,611.266 621.597,611.182 z M620.637,610.277 L621.129,610.741 C621.043,610.66 620.964,610.584 620.878,610.503 C620.813,610.442 620.841,610.471 620.813,610.442 L620.372,610.001 z M633.805,617.486 L633.357,617.379 L633.663,617.457 z M619.711,609.314 L620.095,609.713 C619.437,608.988 619.694,609.264 619.332,608.878 z M635.271,617.772 L634.664,617.663 L634.971,617.726 z M627.343,613.517 C614.896,606.656 610.367,591.003 617.228,578.556 C624.09,566.109 639.742,561.58 652.19,568.441 C664.637,575.302 669.165,590.955 662.304,603.402 C655.443,615.85 639.79,620.378 627.343,613.517 z M636.196,617.905 L635.83,617.858 C636.452,617.954 636.132,617.912 636.789,617.98 C636.28,617.915 636.47,617.938 636.218,617.908 z M618.839,608.311 L618.986,608.481 L618.982,608.476 C618.823,608.292 618.885,608.367 618.794,608.254 z M618.02,607.272 L618.302,607.63 C618.148,607.42 618.249,607.555 617.99,607.23 z M637.694,618.07 L637.559,618.06 L637.601,618.065 z M617.256,606.197 L617.96,607.187 C617.856,607.003 617.716,606.846 617.6,606.67 L617.098,605.949 z M640.282,618.137 L640.08,618.144 C640.29,618.146 640.181,618.147 640.408,618.138 z M616.548,605.091 L616.6,605.172 C616.525,605.053 616.565,605.118 616.482,604.976 z M630.532,607.732 C639.784,612.831 651.419,609.465 656.519,600.213 C661.619,590.961 658.253,579.327 649,574.227 C639.748,569.127 628.114,572.493 623.014,581.745 C617.914,590.997 621.28,602.632 630.532,607.732 z M612.656,592.755 L612.661,592.818 L612.662,592.818 L612.656,592.754 C612.602,591.459 612.586,591.595 612.607,590.403 C612.608,590.305 612.62,590.208 612.624,590.11 C612.628,590 612.624,589.89 612.631,589.78 C612.657,589.324 612.696,588.868 612.723,588.411 C612.594,589.417 612.607,590.434 612.6,591.445 z M656.228,612.591 L654.808,613.601 C655.353,613.252 654.927,613.529 656.058,612.725 z M612.818,587.499 L612.746,588.184 L612.973,586.487 z M613.288,584.877 L613.022,586.173 L613.394,584.465 z M613.623,583.575 L613.542,583.889 L613.736,583.216 L613.735,583.216 z M665.938,598.269 L665.807,598.71 L665.908,598.385 z M620.468,571.851 L620.425,571.897 C620.522,571.805 620.487,571.842 620.535,571.79 L620.879,571.456 z M666.756,594.054 L666.708,594.5 L666.714,594.46 z M623.474,569.234 L623.256,569.406 C623.742,569.032 624.252,568.697 624.75,568.342 L624.548,568.471 z M666.858,593.008 L666.843,593.224 L666.851,593.144 z M666.912,590.156 L666.93,590.645 C666.932,590.339 666.933,590.558 666.909,589.989 z M624.646,613.543 C626.268,614.626 628.001,615.544 629.816,616.259 C630.561,616.574 631.335,616.803 632.106,617.042 L632.119,617.02 C635.201,617.899 638.389,618.37 641.598,618.061 L641.605,618.084 C641.524,618.091 641.563,618.088 641.489,618.092 L641.541,618.09 C644.593,617.912 647.54,617.111 650.37,615.99 L650.395,615.98 C651.182,615.661 651.929,615.265 652.684,614.878 L652.677,614.855 C655.524,613.301 658.126,611.343 660.206,608.831 L660.229,608.844 C660.704,608.312 661.128,607.744 661.568,607.182 L661.627,607.105 C663.501,604.598 664.823,601.752 665.784,598.784 L665.796,598.743 L665.774,598.731 C666.665,595.616 667.165,592.394 666.847,589.148 L666.87,589.141 C666.661,585.671 665.671,582.352 664.246,579.201 L664.2,579.108 L663.665,578.062 L663.641,578.069 C662.087,575.222 660.129,572.619 657.618,570.54 L657.63,570.517 C656.178,569.232 654.564,568.146 652.879,567.19 C651.185,566.245 649.379,565.525 647.53,564.949 L647.517,564.972 C644.437,564.089 641.252,563.589 638.041,563.889 L638.036,563.868 L637.991,563.87 C633.875,564.16 630.452,565.237 626.792,567.11 L626.747,567.135 L626.753,567.156 C623.942,568.695 621.386,570.653 619.325,573.128 L619.303,573.116 L619.582,572.791 C619.461,572.921 619.558,572.816 619.303,573.116 L619.303,573.116 C616.706,576.031 614.931,579.521 613.736,583.216 L613.758,583.229 C612.866,586.343 612.366,589.565 612.684,592.811 L612.662,592.818 L612.667,592.885 C612.853,595.877 613.641,598.77 614.74,601.546 C614.767,601.61 614.755,601.581 614.776,601.632 C615.091,602.411 615.485,603.151 615.867,603.897 L615.867,603.897 C615.916,603.993 615.885,603.935 615.961,604.068 C615.886,603.935 615.916,603.993 615.867,603.897 L615.89,603.89 C616.402,604.852 617.001,605.762 617.6,606.67 C618.026,607.299 618.51,607.883 618.982,608.476 C619.867,609.498 620.798,610.48 621.833,611.351 L621.82,611.372 C623.295,612.613 622.403,611.896 624.539,613.469 z M662.969,576.87 L663.598,577.94 C663.126,577.069 662.604,576.225 662.03,575.418 z M639.3,563.814 L638.049,563.867 C638.709,563.863 638.145,563.874 638.642,563.85 C638.703,563.847 638.764,563.847 638.825,563.845 C639.001,563.835 639.177,563.825 639.352,563.815 z M641.93,563.895 L641.191,563.854 L642.433,563.947 z M661.448,574.607 L661.591,574.8 L661.511,574.688 z M643.246,564.032 L642.994,564.005 L644.511,564.226 z M645.869,564.502 L645.132,564.351 L646.284,564.609 z M658.936,571.729 L658.964,571.754 C658.887,571.675 658.919,571.705 658.872,571.661 z M647.171,564.837 L646.929,564.775 L647.5,564.94 z M657.738,570.609 L657.938,570.781 L657.916,570.76 z M623.819,625.884 L621.385,624.536 L618.768,623.101 C618.961,620.865 618.722,618.618 619.121,616.399 C615.413,613.422 612.629,609.671 610.493,605.452 L610.332,605.498 L603.808,604.384 C603.285,602.534 602.744,600.69 602.205,598.845 L607.127,594.419 L607.39,594.343 C606.892,589.521 607.543,585.227 608.983,580.631 L608.994,580.602 L608.686,580.433 L604.861,575.032 C605.799,573.354 606.721,571.667 607.644,569.982 L614.254,570.333 L614.561,570.502 L614.581,570.476 C617.48,566.863 621.139,563.971 625.246,561.849 C625.332,559.538 625.941,557.285 626.362,555.021 C628.211,554.498 630.056,553.957 631.901,553.418 C633.184,555.298 635.297,556.506 636.44,558.494 C641.316,557.933 645.608,558.518 650.269,559.961 L650.286,559.937 C650.513,559.691 650.583,559.592 650.832,559.395 C651.484,558.879 652.198,558.466 652.887,558.006 C654.498,556.931 654.125,557.179 655.714,556.074 C659.136,557.97 657.453,557.042 660.764,558.858 C660.744,559.256 660.718,559.654 660.704,560.052 C660.655,561.5 660.646,562.315 660.619,563.637 C660.605,564.273 660.606,564.933 660.387,565.539 C664.106,568.522 666.898,572.277 669.04,576.507 L669.201,576.46 L675.725,577.574 C676.248,579.424 676.789,581.269 677.327,583.114 L672.406,587.539 L672.143,587.616 C672.641,592.438 671.99,596.732 670.55,601.327 L670.539,601.358 L670.845,601.526 L674.671,606.928 C673.733,608.605 672.811,610.292 671.887,611.978 L665.278,611.627 L664.971,611.458 L664.952,611.482 C662.036,615.125 658.342,618.014 654.209,620.15 L654.285,620.413 L653.171,626.938 C651.321,627.461 649.477,628.002 647.632,628.54 L643.206,623.619 L643.16,623.458 C638.282,624.029 633.942,623.446 629.278,622.002 C627.687,623.404 625.863,624.514 624.104,625.688 z" fill="#000000"/>
    <path d="M577.958,546.227 C591.89,546.227 603.184,534.933 603.184,521.001 C603.184,507.069 591.89,495.775 577.958,495.775 C564.027,495.775 552.733,507.069 552.733,521.001 C552.733,534.933 564.027,546.227 577.958,546.227 z M576.643,573.002 L565.386,572.293 L559.776,562.577 L548.939,565.48 C547.877,564.544 546.812,563.611 545.745,562.681 C543.847,561.029 541.849,559.448 540.097,557.637 C538.899,556.398 537.795,555.068 536.663,553.77 C535.289,552.193 533.906,550.624 532.518,549.059 L535.422,538.222 L525.706,532.613 C525.582,528.554 524.916,524.504 525.009,520.439 C525.045,518.842 525.197,517.244 525.306,515.651 C525.449,513.565 525.581,511.477 525.706,509.389 L535.422,503.78 L532.518,492.943 C533.454,491.881 534.387,490.816 535.317,489.748 C536.97,487.85 538.551,485.853 540.362,484.101 C541.6,482.903 542.931,481.799 544.229,480.667 C545.805,479.292 547.375,477.91 548.939,476.522 L559.776,479.425 L565.386,469.709 C580.631,468.749 572.89,468.778 588.609,469.709 L594.219,479.425 L605.056,476.522 C607.979,479.329 611.319,481.709 614.149,484.615 C615.316,485.813 616.386,487.107 617.481,488.37 C618.806,489.9 620.139,491.424 621.477,492.943 L618.573,503.78 L628.289,509.389 C628.396,513.565 629.072,517.733 628.989,521.913 C628.958,523.461 628.807,525.01 628.697,526.553 C628.553,528.573 628.417,530.592 628.289,532.613 L618.573,538.222 L621.477,549.059 C618.669,551.982 616.289,555.322 613.383,558.153 C612.186,559.319 610.891,560.39 609.629,561.484 C608.099,562.81 606.575,564.143 605.056,565.48 L594.219,562.577 L588.609,572.293 z" fill="#000000"/>
    <path d="M739.703,571.289 L744.493,577.687 L747.296,570.202 L753.694,565.412 L746.209,562.609 L741.419,556.21 L738.616,563.696 L732.217,568.486 z M778.153,543.683 L777.016,551.594 L784.291,548.284 L792.203,549.421 L788.892,542.146 L790.029,534.234 L782.754,537.545 L774.843,536.408 z M691.907,556.027 L690.77,563.939 L698.044,560.628 L705.956,561.765 L702.645,554.49 L703.782,546.579 L696.507,549.89 L688.596,548.752 z M739.889,545.518 C764.075,542.057 780.875,519.643 777.414,495.457 C773.952,471.271 751.539,454.47 727.352,457.932 C703.166,461.394 686.366,483.807 689.827,507.993 C693.289,532.18 715.702,548.98 739.889,545.518 z M739.559,543.214 C716.645,546.493 695.412,530.577 692.132,507.663 C688.853,484.75 704.769,463.517 727.682,460.237 C750.596,456.957 771.829,472.874 775.109,495.787 C778.388,518.7 762.472,539.934 739.559,543.214 z M738.034,532.563 C755.066,530.126 766.896,514.343 764.458,497.311 C762.021,480.28 746.238,468.45 729.207,470.887 C712.175,473.325 700.345,489.108 702.782,506.139 C705.22,523.171 721.003,535.001 738.034,532.563 z M673.62,514.188 L678.41,520.586 L681.213,513.101 L687.611,508.311 L680.126,505.508 L675.336,499.109 L672.533,506.594 L666.134,511.385 z M787.115,497.943 L791.905,504.341 L794.708,496.856 L801.107,492.066 L793.621,489.263 L788.831,482.865 L786.028,490.35 L779.63,495.14 z M679.562,469.781 L678.425,477.692 L685.7,474.381 L693.612,475.519 L690.301,468.244 L691.438,460.332 L684.163,463.643 L676.251,462.506 z M765.809,457.436 L764.672,465.348 L771.947,462.037 L779.858,463.174 L776.547,455.899 L777.685,447.988 L770.41,451.298 L762.498,450.161 z M722.245,449.318 L727.035,455.716 L729.838,448.231 L736.237,443.441 L728.751,440.638 L723.961,434.239 L721.158,441.724 L714.76,446.515 z M753.011,589.521 L746.556,590.429 L739.636,591.435 L730.971,578.575 L730.947,578.405 C719.854,578.147 709.204,574.835 699.263,570.087 L699.028,570.4 L685.251,577.517 C681.662,574.797 678.05,572.106 674.44,569.414 C675.658,564.155 675.984,558.681 677.659,553.531 C670.205,545.68 665.193,536.037 661.495,525.951 C656.146,524.892 651.004,522.809 645.825,521.116 C645.211,516.654 644.56,512.198 643.911,507.741 C648.55,504.857 652.681,501.137 657.595,498.704 C657.877,487.912 660.832,477.448 665.368,467.709 C662.431,463.185 660.266,458.163 657.829,453.356 C660.549,449.766 663.24,446.155 665.932,442.545 C671.091,443.771 676.483,444.054 681.55,445.67 C689.461,437.912 699.24,432.694 709.545,428.874 L709.521,428.704 L714.23,413.93 C723.306,412.651 718.848,413.29 727.605,412.016 L736.27,424.876 L735.328,425.011 C735.642,424.97 735.956,424.921 736.27,424.876 L736.294,425.045 C747.333,425.308 757.962,428.583 767.861,433.306 C772.411,430.557 777.242,428.314 781.99,425.933 C785.579,428.654 789.191,431.344 792.801,434.037 L789.834,449.258 L789.449,449.771 C796.965,457.658 802.024,467.35 805.746,477.499 C811.095,478.559 816.237,480.642 821.416,482.335 C822.029,486.797 822.682,491.253 823.33,495.709 L810.47,504.374 L809.657,504.491 L809.656,504.564 C809.388,515.418 806.434,525.946 801.873,535.742 C804.81,540.266 806.975,545.287 809.412,550.095 C806.691,553.684 804.002,557.296 801.309,560.906 C796.15,559.68 790.758,559.397 785.691,557.781 C777.78,565.539 768.001,570.756 757.696,574.577 L757.72,574.746 z" fill="#000000"/>
    <path d="M711.129,608.619 C713.442,603.05 710.802,596.66 705.233,594.347 C699.663,592.034 693.273,594.674 690.96,600.243 C688.647,605.813 691.287,612.203 696.856,614.516 C702.426,616.829 708.816,614.189 711.129,608.619 z z M700.454,628.515 C700.104,628.497 699.756,628.47 699.407,628.444 L698.455,623.601 C697.352,623.495 696.28,623.202 695.218,622.9 L692.261,626.867 C691.939,626.731 691.62,626.586 691.301,626.442 L692.061,621.583 C691.054,621.088 690.148,620.421 689.252,619.753 L685.143,622.501 C684.876,622.275 684.615,622.042 684.353,621.81 L686.758,617.362 C686.052,616.596 685.484,615.718 684.917,614.847 L684.881,614.784 L679.918,616.001 C679.744,615.698 679.579,615.389 679.412,615.081 L683.339,611.596 L683.323,611.557 C682.967,610.624 682.718,609.658 682.507,608.684 L677.292,608.115 C677.232,607.771 677.182,607.424 677.131,607.078 L682.117,605.104 C682.088,604.117 682.176,603.132 682.298,602.154 L677.427,599.755 C677.49,599.411 677.561,599.068 677.632,598.725 L683.133,598.572 C683.416,597.655 683.829,596.785 684.237,595.918 L680.455,591.972 C680.631,591.67 680.816,591.372 680.999,591.074 L686.19,592.801 C686.762,592.007 687.451,591.309 688.136,590.614 L685.97,585.698 C686.239,585.474 686.514,585.258 686.789,585.041 L690.966,588.352 C691.821,587.782 692.724,587.289 693.663,586.872 L693.321,581.698 C693.65,581.58 693.983,581.471 694.315,581.36 L697.001,585.727 L697.012,585.724 C698.037,585.46 699.091,585.34 700.143,585.25 L701.547,580.424 C701.897,580.425 702.247,580.436 702.597,580.446 L703.601,585.34 C704.688,585.481 705.78,585.678 706.82,586.032 L709.737,582.05 C710.386,582.297 710.06,582.17 710.715,582.43 L709.988,587.354 C710.957,587.843 711.852,588.459 712.724,589.103 L716.893,586.364 C717.149,586.602 717.399,586.847 717.65,587.092 L715.235,591.469 C715.975,592.26 716.569,593.169 717.16,594.073 L722.113,592.902 C722.272,593.214 722.423,593.53 722.575,593.845 L718.704,597.224 C719.086,598.196 719.369,599.201 719.578,600.223 L724.842,600.841 C724.886,601.189 724.919,601.537 724.954,601.885 L719.976,603.808 C720.005,604.799 719.92,605.786 719.799,606.769 L724.598,609.183 C724.52,609.524 724.433,609.863 724.346,610.202 L718.984,610.307 L718.983,610.311 C718.694,611.252 718.27,612.144 717.853,613.034 L721.557,616.965 C721.366,617.258 721.169,617.547 720.971,617.836 L715.927,616.111 C715.345,616.925 714.639,617.638 713.938,618.349 L716.045,623.241 C715.766,623.452 715.481,623.656 715.197,623.86 L711.137,620.586 C710.282,621.157 709.38,621.651 708.442,622.069 L708.742,627.263 C708.407,627.366 708.07,627.46 707.733,627.555 L705.112,623.213 L705.081,623.221 C704.039,623.491 702.969,623.608 701.899,623.699 z" fill="#000000"/>
    <path d="M842.104,443.012 C853.351,442.504 862.058,433.013 861.552,421.813 C861.046,410.613 851.518,401.946 840.271,402.454 C829.024,402.963 820.317,412.454 820.823,423.654 C821.329,434.853 830.857,443.52 842.104,443.012 z M843.203,467.591 C839.022,467.78 835.488,464.756 835.311,460.836 C835.228,458.839 834.913,456.728 833.687,455.089 C833.664,455.059 833.362,454.715 833.274,454.66 C832.809,454.368 832.27,454.341 831.753,454.202 C829.609,454.711 828.205,456.44 826.925,458.111 C826.864,458.235 826.783,458.348 826.71,458.465 C824.549,461.74 819.965,462.527 816.471,460.222 L816.452,460.209 C812.958,457.904 811.877,453.38 814.037,450.105 C814.982,448.705 817.126,444.786 815.611,443.038 C814.822,442.129 813.329,442.222 812.257,442.21 C811.089,442.284 809.965,442.632 808.853,442.972 C808.731,443.036 808.6,443.079 808.472,443.131 C804.799,444.51 800.628,442.452 799.156,438.534 L799.148,438.512 C797.676,434.594 799.461,430.299 803.134,428.919 C804.956,428.234 806.85,427.338 808.014,425.709 C808.296,425.313 808.65,424.796 808.628,424.284 C808.53,422.086 804.471,420.462 802.731,420.006 C798.948,418.963 796.784,414.846 797.896,410.811 L797.902,410.789 C799.015,406.753 802.983,404.327 806.766,405.37 C808.388,405.835 813.177,406.751 814.094,404.414 C814.883,402.402 812.865,399.38 811.679,397.922 C809.232,394.855 809.9,390.252 813.172,387.642 L813.19,387.627 C816.462,385.017 821.098,385.387 823.546,388.454 C824.914,390.161 826.633,391.957 828.904,392.265 C829.394,392.037 829.919,391.882 830.416,391.679 C831.858,389.921 831.978,387.485 831.898,385.316 C831.721,381.396 834.967,378.065 839.149,377.876 L839.171,377.875 C843.353,377.686 846.886,380.711 847.064,384.631 C847.066,384.753 847.068,384.875 847.07,384.996 C847.069,385.01 847.069,385.024 847.068,385.037 C847.315,386.98 847.527,389.304 849.001,390.773 C849.26,391.031 850.307,391.179 850.711,391.293 C852.928,390.717 854.465,388.843 855.666,387.002 C857.826,383.727 862.41,382.94 865.905,385.245 L865.923,385.258 C869.418,387.563 870.498,392.086 868.338,395.362 C868.259,395.474 868.186,395.591 868.099,395.697 C867.1,397.33 866.226,399.155 866.293,401.113 C866.305,401.471 866.268,401.554 866.368,401.862 C866.471,402.182 866.826,402.554 867.098,402.743 C869.06,404.105 871.894,403.06 873.903,402.336 C877.576,400.956 881.747,403.014 883.219,406.933 L883.227,406.954 C884.699,410.873 882.914,415.168 879.241,416.548 C877.44,417.257 875.353,418.161 874.276,419.883 C874.053,420.239 873.706,420.724 873.75,421.17 C873.995,423.663 877.627,424.913 879.644,425.461 C883.427,426.504 885.591,430.621 884.479,434.656 L884.473,434.678 C883.36,438.713 879.392,441.139 875.609,440.096 C875.473,440.055 875.336,440.02 875.203,439.967 C874.083,439.647 872.914,439.586 871.757,439.52 C870.607,439.58 868.464,439.8 868.164,441.277 C867.719,443.463 869.447,445.968 870.696,447.544 C873.143,450.611 872.475,455.214 869.203,457.825 L869.185,457.839 C865.913,460.45 861.277,460.08 858.83,457.013 C858.748,456.904 858.66,456.8 858.587,456.685 C857.38,455.345 855.466,453.297 853.475,453.2 C852.983,453.428 852.458,453.585 851.959,453.788 C850.516,455.546 850.396,457.982 850.477,460.15 C850.654,464.07 847.408,467.401 843.226,467.59 z" fill="#040404"/>
    <path d="M861.283,360.744 C861.248,360.041 861.232,359.336 861.097,358.644 C862.2,358.108 863.253,357.486 864.259,356.776 C864.111,356.122 863.899,355.489 863.655,354.865 C862.409,354.787 861.124,354.847 859.914,354.995 C859.604,354.366 859.239,353.758 858.818,353.196 C858.415,352.618 857.935,352.101 857.449,351.592 C858.005,350.532 858.494,349.406 858.908,348.222 C858.385,347.811 857.86,347.395 857.297,347.039 C856.218,347.747 855.251,348.484 854.344,349.34 C853.719,349.012 853.068,348.746 852.4,348.522 C851.726,348.326 851.046,348.13 850.346,348.048 C850.173,346.845 849.906,345.631 849.542,344.464 C848.877,344.419 848.212,344.399 847.547,344.452 C847.09,345.623 846.744,346.826 846.512,348.048 C845.812,348.13 845.133,348.326 844.458,348.522 C843.79,348.746 843.139,349.012 842.514,349.34 C841.66,348.453 840.758,347.677 839.759,346.918 C839.176,347.246 838.666,347.682 838.128,348.075 C838.461,349.306 838.9,350.494 839.409,351.593 C838.923,352.101 838.444,352.618 838.041,353.196 C837.62,353.758 837.255,354.366 836.945,354.995 C835.765,354.794 834.507,354.662 833.284,354.648 C833.054,355.276 832.804,355.898 832.658,356.551 C833.645,357.353 834.664,358.047 835.762,358.644 C835.627,359.336 835.61,360.041 835.576,360.744 C835.61,361.446 835.627,362.151 835.762,362.844 C834.659,363.379 833.606,364.001 832.6,364.711 C832.748,365.365 832.96,365.998 833.203,366.622 C834.45,366.7 835.735,366.64 836.945,366.492 C837.255,367.121 837.62,367.729 838.041,368.291 C838.444,368.869 838.923,369.386 839.409,369.895 C838.853,370.955 838.365,372.081 837.951,373.265 C838.474,373.676 838.998,374.093 839.562,374.448 C840.64,373.74 841.608,373.003 842.514,372.148 C843.139,372.475 843.79,372.741 844.458,372.965 C845.133,373.161 845.812,373.357 846.512,373.439 C846.685,374.642 846.952,375.856 847.317,377.023 C847.982,377.068 848.646,377.088 849.311,377.035 C849.769,375.864 850.114,374.661 850.346,373.439 C851.046,373.357 851.726,373.161 852.4,372.965 C853.068,372.741 853.719,372.475 854.344,372.148 C855.199,373.035 856.1,373.811 857.1,374.569 C857.682,374.241 858.192,373.805 858.73,373.412 C858.398,372.181 857.958,370.993 857.45,369.895 C857.935,369.386 858.415,368.869 858.818,368.291 C859.239,367.729 859.604,367.121 859.914,366.492 C861.093,366.693 862.351,366.825 863.574,366.839 C863.805,366.211 864.054,365.59 864.201,364.936 C863.214,364.134 862.194,363.44 861.097,362.843 C861.232,362.151 861.248,361.446 861.283,360.744 z M851.149,369.112 C849.404,369.679 847.454,369.679 845.709,369.112 C843.978,368.528 842.378,367.425 841.316,365.908 C840.209,364.42 839.651,362.597 839.626,360.744 C839.651,358.89 840.209,357.067 841.316,355.579 C842.378,354.063 843.978,352.959 845.709,352.375 C847.454,351.808 849.404,351.808 851.149,352.375 C852.881,352.959 854.48,354.063 855.543,355.579 C856.65,357.067 857.207,358.89 857.232,360.744 C857.207,362.597 856.65,364.42 855.543,365.908 C854.48,367.424 852.881,368.528 851.149,369.112" fill="#000000"/>
    <path d="M746.253,339.83 C750.773,337.786 754.689,334.369 757.379,330.189 C760.105,326.004 761.473,321.089 761.544,316.085 C761.473,311.081 760.106,306.165 757.379,301.981 C754.689,297.802 750.774,294.385 746.253,292.341 C741.766,290.303 736.625,289.482 731.692,290.265 C726.77,290.92 722.095,293.102 718.331,296.359 C714.55,299.617 711.769,303.977 710.363,308.724 C708.965,313.476 708.965,318.694 710.364,323.447 C711.769,328.194 714.551,332.554 718.332,335.811 C722.097,339.069 726.77,341.251 731.693,341.907 C736.625,342.689 741.766,341.869 746.253,339.83 z z M731.997,339.775 C727.483,339.176 723.202,337.174 719.743,334.184 C716.271,331.193 713.721,327.19 712.431,322.841 C711.148,318.489 711.148,313.682 712.431,309.33 C713.72,304.981 716.27,300.978 719.742,297.987 C723.2,294.997 727.482,292.996 731.996,292.397 C736.528,291.673 741.248,292.435 745.357,294.299 C749.502,296.171 753.1,299.312 755.569,303.147 C758.071,306.989 759.317,311.485 759.391,316.085 C759.317,320.684 758.071,325.18 755.569,329.023 C753.1,332.858 749.501,335.999 745.357,337.872 C741.248,339.736 736.528,340.498 731.997,339.775 z M743.348,333.478 C746.649,331.991 749.535,329.469 751.507,326.407 C753.509,323.334 754.482,319.779 754.559,316.085 C754.482,312.39 753.51,308.836 751.507,305.763 C749.535,302.701 746.65,300.18 743.348,298.693 C740.085,297.216 736.31,296.586 732.678,297.18 C729.079,297.651 725.679,299.247 722.908,301.637 C720.126,304.031 718.095,307.233 717.067,310.689 C716.044,314.144 716.045,318.027 717.067,321.481 C718.095,324.938 720.126,328.14 722.908,330.534 C725.68,332.925 729.081,334.52 732.679,334.992 C736.311,335.585 740.085,334.955 743.348,333.478 z z M736.974,369.574 C735.788,366.926 734.77,364.183 733.919,361.397 C732.266,361.318 730.612,361.267 728.975,360.963 C727.329,360.743 725.697,360.452 724.097,359.991 C722.51,362.374 720.732,364.792 718.843,366.994 C715,365.684 711.243,364.066 707.801,361.921 C708.267,358.997 708.841,356.213 709.635,353.41 C708.326,352.398 706.923,351.495 705.72,350.353 C704.495,349.238 703.235,348.158 702.158,346.895 C699.531,348.047 696.77,349.088 693.953,349.958 C691.451,346.78 689.163,343.408 687.414,339.741 C689.377,337.529 691.398,335.479 693.539,333.562 C692.98,332.001 692.331,330.463 691.893,328.863 C691.511,327.25 690.965,325.664 690.77,324.015 C687.94,323.558 685.087,322.93 682.226,322.133 C681.786,318.111 681.787,314.061 682.226,310.039 C685.086,309.242 687.94,308.615 690.769,308.157 C690.965,306.507 691.511,304.923 691.892,303.309 C692.33,301.708 692.978,300.171 693.538,298.61 C691.396,296.693 689.376,294.642 687.413,292.432 C689.162,288.764 691.449,285.391 693.951,282.213 C696.768,283.083 699.53,284.125 702.157,285.276 C703.235,284.013 704.495,282.933 705.72,281.817 C706.922,280.676 708.325,279.773 709.635,278.761 C708.841,275.959 708.266,273.174 707.801,270.25 C711.242,268.104 715,266.488 718.841,265.178 C720.731,267.379 722.508,269.798 724.096,272.18 C725.696,271.719 727.327,271.428 728.973,271.208 C730.61,270.905 732.265,270.854 733.918,270.774 C734.768,267.988 735.787,265.245 736.973,262.597 C740.999,262.733 745.06,263.229 748.976,264.318 C749.361,267.253 749.604,270.067 749.629,273.007 C751.177,273.605 752.787,274.063 754.259,274.835 C755.758,275.55 757.266,276.248 758.658,277.154 C760.856,275.314 763.225,273.528 765.678,271.916 C768.974,274.263 772.113,276.856 774.81,279.875 C773.544,282.548 772.198,285.067 770.662,287.526 C771.637,288.865 772.717,290.132 773.564,291.559 C774.416,292.982 775.34,294.364 776.014,295.886 C778.863,295.52 781.787,295.31 784.76,295.263 C786.266,299.032 787.496,302.933 788.145,306.941 C785.636,308.504 783.086,309.902 780.513,311.129 C780.668,312.776 780.714,314.434 780.793,316.085 C780.714,317.737 780.668,319.393 780.513,321.039 C783.086,322.267 785.636,323.665 788.145,325.229 C787.496,329.236 786.266,333.137 784.76,336.906 C781.787,336.859 778.863,336.649 776.014,336.284 C775.34,337.806 774.416,339.188 773.564,340.611 C772.718,342.038 771.637,343.305 770.663,344.644 C772.199,347.101 773.545,349.621 774.811,352.294 C772.114,355.313 768.975,357.906 765.679,360.252 C763.227,358.642 760.858,356.855 758.659,355.016 C757.267,355.922 755.759,356.621 754.26,357.335 C752.788,358.108 751.178,358.566 749.631,359.162 C749.606,362.103 749.363,364.917 748.978,367.851 C745.062,368.942 741.001,369.438 736.974,369.574 z" fill="#000000"/>
    <path d="M756.382,410.682 L749.762,410.666 L742.659,410.682 C740.453,406.021 737.895,401.533 735.895,396.778 L724.822,407.536 C720.532,405.949 716.229,404.397 711.927,402.843 L710.356,387.451 L696.241,393.787 C692.753,390.828 689.24,387.898 685.729,384.966 L689.517,369.965 L674.086,371.091 C671.821,367.117 669.522,363.162 667.225,359.206 L675.916,346.406 L661.03,342.187 C660.26,337.677 659.452,333.175 658.647,328.672 L671.177,319.626 C666.871,316.788 662.795,313.621 658.647,310.56 C659.466,306.059 660.247,301.552 661.03,297.045 L675.898,292.831 C672.823,288.691 670.075,284.32 667.225,280.025 C669.533,276.076 671.809,272.108 674.086,268.141 L689.499,269.266 C687.885,264.372 686.936,259.272 685.729,254.266 C689.249,251.344 692.744,248.394 696.241,245.445 L710.341,251.774 C710.591,246.63 711.365,241.51 711.927,236.389 C716.234,234.847 720.528,233.27 724.822,231.695 L735.919,242.477 L742.659,228.55 C751.969,228.57 747.394,228.571 756.382,228.55 L763.123,242.477 L774.219,231.695 C778.509,233.284 782.813,234.834 787.115,236.389 L788.684,251.763 C793.298,249.458 798.076,247.508 802.801,245.445 C806.289,248.404 809.802,251.334 813.313,254.266 L809.529,269.249 C814.652,268.655 819.81,268.462 824.955,268.141 C827.221,272.115 829.521,276.069 831.817,280.025 L823.136,292.811 C828.152,294.011 833.066,295.589 838.012,297.045 C838.781,301.554 839.59,306.057 840.395,310.56 L827.865,319.605 C832.171,322.444 836.247,325.611 840.395,328.672 C839.575,333.172 838.796,337.68 838.012,342.187 L823.144,346.401 C826.219,350.541 828.966,354.911 831.817,359.206 C829.508,363.155 827.234,367.124 824.955,371.091 L809.542,369.966 C811.157,374.86 812.105,379.959 813.313,384.966 C809.793,387.887 806.298,390.839 802.801,393.787 L788.701,387.458 C788.451,392.602 787.677,397.721 787.115,402.843 C782.808,404.383 778.514,405.962 774.219,407.536 L763.123,396.755 z M749.521,389.305 C788.009,389.305 819.211,358.104 819.211,319.616 C819.211,281.127 788.009,249.926 749.521,249.926 C711.032,249.926 679.831,281.127 679.831,319.616 C679.831,358.104 711.032,389.305 749.521,389.305 z" fill="#000000"/>
    <path d="M729.661,225.137 C731.044,225.137 732.166,224.016 732.166,222.632 C732.166,221.249 731.044,220.127 729.661,220.127 C728.277,220.127 727.156,221.249 727.156,222.632 C727.156,224.016 728.277,225.137 729.661,225.137 z M743.229,219.529 C744.208,218.55 744.208,216.964 743.229,215.986 C742.251,215.008 740.665,215.008 739.687,215.986 C738.709,216.964 738.709,218.55 739.687,219.529 C740.665,220.507 742.251,220.507 743.229,219.529 z z M719.768,219.502 C720.747,218.524 720.747,216.938 719.768,215.959 C718.79,214.981 717.204,214.981 716.226,215.959 C715.247,216.938 715.247,218.524 716.226,219.502 C717.204,220.48 718.79,220.48 719.768,219.502 z z M729.114,217.351 C735.395,217.351 740.486,212.26 740.486,205.979 C740.486,199.699 735.395,194.607 729.114,194.607 C722.834,194.607 717.742,199.699 717.742,205.979 C717.742,212.26 722.834,217.351 729.114,217.351 z M729.252,216.378 C723.496,216.378 718.831,211.712 718.831,205.957 C718.831,200.201 723.496,195.536 729.252,195.536 C735.007,195.536 739.673,200.201 739.673,205.957 C739.673,211.712 735.007,216.378 729.252,216.378 z M729.252,214.477 C733.957,214.477 737.772,210.662 737.772,205.957 C737.772,201.251 733.957,197.437 729.252,197.437 C724.546,197.437 720.732,201.251 720.732,205.957 C720.732,210.662 724.546,214.477 729.252,214.477 z M746.461,208.476 C747.844,208.476 748.966,207.355 748.966,205.971 C748.966,204.588 747.844,203.466 746.461,203.466 C745.077,203.466 743.956,204.588 743.956,205.971 C743.956,207.355 745.077,208.476 746.461,208.476 z M713.119,208.462 C714.503,208.462 715.624,207.34 715.624,205.957 C715.624,204.573 714.503,203.452 713.119,203.452 C711.736,203.452 710.614,204.573 710.614,205.957 C710.614,207.34 711.736,208.462 713.119,208.462 z M719.664,195.942 C720.642,194.964 720.642,193.378 719.664,192.4 C718.686,191.421 717.099,191.421 716.121,192.4 C715.143,193.378 715.143,194.964 716.121,195.942 C717.099,196.92 718.686,196.92 719.664,195.942 z z M743.355,195.936 C744.333,194.958 744.333,193.372 743.355,192.394 C742.376,191.415 740.79,191.415 739.812,192.394 C738.834,193.372 738.834,194.958 739.812,195.936 C740.79,196.915 742.376,196.915 743.355,195.936 z z M729.675,191.796 C731.059,191.796 732.18,190.674 732.18,189.291 C732.18,187.907 731.059,186.786 729.675,186.786 C728.292,186.786 727.17,187.907 727.17,189.291 C727.17,190.674 728.292,191.796 729.675,191.796 z M727.56,230.124 C726.703,229.241 726.204,228.036 725.659,226.947 L725.654,226.938 C724.73,226.784 723.836,226.498 722.943,226.222 L722.886,226.202 L722.877,226.208 C722.121,226.62 720.572,227.888 719.643,228.008 C719.024,227.973 718.158,227.148 717.692,226.878 C717.226,226.609 716.18,226.239 715.766,225.77 C715.477,224.674 715.652,223.173 715.715,222.047 C714.987,221.438 714.347,220.735 713.708,220.038 C712.074,220.128 712.891,220.097 711.255,220.132 C710.825,220.107 710.394,220.149 709.988,219.981 C709.47,219.641 709.133,218.494 708.863,218.028 C708.594,217.561 707.873,216.718 707.75,216.105 C708.05,215.008 708.926,213.835 709.544,212.888 L709.561,212.863 L709.547,212.827 C709.23,211.944 709.027,211.026 708.831,210.11 C708.092,209.658 706.195,208.943 705.623,208.194 C705.345,207.64 705.626,206.478 705.626,205.939 C705.626,205.401 705.424,204.31 705.623,203.718 C706.42,202.923 707.837,202.308 708.837,201.804 C708.99,200.888 709.274,200.002 709.547,199.117 L709.565,199.067 L709.549,199.044 C709.137,198.287 707.869,196.738 707.749,195.809 C707.785,195.191 708.61,194.325 708.879,193.859 C709.148,193.392 709.518,192.347 709.987,191.933 C711.089,191.643 712.598,191.819 713.729,191.883 C714.332,191.161 715.029,190.526 715.721,189.891 C715.742,189.025 715.413,187.018 715.776,186.146 C716.116,185.629 717.264,185.291 717.73,185.022 C718.196,184.753 719.04,184.032 719.652,183.908 C720.738,184.201 721.977,185.119 722.913,185.732 L722.943,185.721 C723.821,185.425 724.719,185.197 725.629,185.026 C725.997,184.277 726.375,183.533 726.795,182.812 C726.986,182.484 727.224,182.007 727.56,181.789 C728.113,181.511 729.276,181.793 729.814,181.793 C730.352,181.793 731.443,181.59 732.036,181.789 C732.537,182.201 732.845,182.896 733.147,183.449 C733.425,183.96 733.691,184.48 733.949,185.002 C734.869,185.196 735.795,185.407 736.68,185.731 C737.35,185.373 739.097,183.997 739.934,183.912 C740.546,184.035 741.39,184.756 741.856,185.025 C742.322,185.294 743.47,185.632 743.81,186.15 C744.111,187.338 743.939,188.671 743.865,189.883 C744.592,190.49 745.232,191.191 745.871,191.887 C746.615,191.927 748.817,191.583 749.608,191.938 C750.077,192.351 750.447,193.397 750.716,193.864 C750.986,194.33 751.811,195.196 751.846,195.814 C751.51,196.997 750.716,198.032 750.046,199.049 L750.032,199.07 L750.049,199.117 C750.363,199.993 750.566,200.903 750.761,201.812 C751.406,202.213 753.466,203.037 753.957,203.718 C754.156,204.31 753.954,205.401 753.954,205.939 C753.954,206.478 754.235,207.64 753.957,208.194 C753.074,209.05 751.869,209.55 750.781,210.095 L750.767,210.101 C750.613,211.03 750.326,211.929 750.049,212.827 L750.036,212.861 L750.051,212.883 C750.407,213.549 751.761,215.27 751.846,216.1 C751.722,216.713 751.001,217.556 750.732,218.023 C750.463,218.489 750.125,219.636 749.608,219.977 C749.207,220.142 748.765,220.121 748.34,220.127 C747.523,220.132 746.707,220.085 745.893,220.033 C745.281,220.766 744.574,221.411 743.872,222.055 C743.833,222.797 744.173,224.98 743.82,225.767 C743.406,226.236 742.36,226.606 741.894,226.875 C741.428,227.144 740.562,227.969 739.943,228.005 C738.759,227.668 737.723,226.874 736.706,226.203 L736.653,226.222 C735.77,226.54 734.852,226.743 733.935,226.939 L733.925,226.961 C733.526,227.603 732.712,229.636 732.036,230.124 C731.443,230.323 730.352,230.121 729.814,230.121 C729.276,230.121 728.113,230.402 727.56,230.124 z" fill="#000000"/>
    <path d="M651.03,266.28 L644.994,257.953 L662.636,254.805 L659.851,264.706 L655.594,265.455 z M649.537,232.406 C663.593,229.898 672.954,216.471 670.446,202.416 C667.938,188.36 654.51,178.999 640.455,181.507 C626.399,184.015 617.038,197.442 619.546,211.498 C622.054,225.553 635.482,234.914 649.537,232.406 z M620.886,211.259 C618.51,197.943 627.378,185.222 640.694,182.846 C654.01,180.47 666.73,189.339 669.106,202.655 C671.482,215.97 662.614,228.691 649.298,231.067 C635.982,233.443 623.262,224.575 620.886,211.259 z z M648.194,224.878 C658.091,223.112 664.683,213.657 662.917,203.759 C661.151,193.861 651.696,187.27 641.798,189.036 C631.901,190.802 625.309,200.257 627.075,210.154 C628.841,220.052 638.296,226.644 648.194,224.878 z M614.666,258.296 C612.225,256.574 609.769,254.874 607.315,253.171 C608.116,249.825 607.997,244.562 609.571,241.456 L609.593,241.42 C604.755,236.589 601.4,230.581 598.846,224.293 L597.147,224.596 L587.247,221.812 C586.738,218.869 586.205,215.93 585.673,212.991 C588.739,211.115 592.208,207.343 595.708,206.263 C595.719,199.563 597.262,192.992 599.867,186.843 C598.383,185.613 597.564,183.807 596.668,182.142 C595.057,179.149 595.298,179.603 593.657,176.626 C595.378,174.185 597.079,171.73 598.781,169.276 C599.395,169.373 600.007,169.475 600.621,169.566 C602.997,169.917 608.114,170.324 610.38,171.473 C615.197,166.496 621.227,163.01 627.586,160.396 C626.754,155.733 627.238,159.528 630.141,149.208 C636.127,148.153 633.187,148.678 638.962,147.634 C645.254,156.313 644.396,152.585 645.228,157.248 C652.147,157.222 658.898,158.951 665.212,161.694 C666.65,160.081 668.725,159.211 670.594,158.209 C672.665,157.098 673.269,156.755 675.326,155.618 C677.767,157.339 680.223,159.04 682.677,160.742 C682.313,163.036 682.001,165.342 681.896,167.663 C681.863,168.397 681.925,169.178 681.659,169.879 C681.339,170.724 680.647,171.489 680.136,172.22 C684.988,177.033 688.445,182.985 691.009,189.274 C692.969,189.069 694.863,189.775 696.715,190.33 C699.959,191.303 699.491,191.159 702.745,192.101 C703.253,195.045 703.788,197.983 704.319,200.922 C702.436,202.293 700.575,203.703 698.855,205.275 C698.311,205.772 697.788,206.37 697.096,206.675 C696.247,207.048 695.195,207.102 694.293,207.262 C694.317,214.093 692.779,220.8 690.125,227.07 C691.609,228.3 692.428,230.107 693.323,231.771 C694.934,234.764 694.694,234.31 696.335,237.287 C694.613,239.728 692.913,242.184 691.211,244.637 C690.597,244.541 689.985,244.438 689.371,244.348 C686.995,243.997 681.878,243.589 679.612,242.441 C674.795,247.417 668.765,250.904 662.406,253.518 L662.636,254.805 L644.994,257.953 L644.764,256.666 C643.209,256.683 641.665,256.539 640.118,256.417 C634.67,255.953 629.458,254.222 624.463,252.077 L623.635,253.264 z" fill="#000000"/>
    <path d="M589.265,173.725 C589.362,173.094 589.403,172.455 589.447,171.817 C591,171.418 592.578,170.928 594.103,170.347 C594.107,169.481 594.052,168.618 593.98,167.757 C592.373,167.23 590.782,166.806 589.157,166.495 C589.07,165.861 588.919,165.24 588.787,164.615 C588.617,163.998 588.468,163.376 588.259,162.772 C589.584,161.834 590.851,160.821 592.079,159.726 C591.766,158.921 591.422,158.125 591.03,157.355 C589.357,157.43 587.695,157.621 586.082,157.905 C585.752,157.358 585.424,156.809 585.049,156.291 C584.692,155.761 584.294,155.26 583.899,154.757 C584.777,153.416 585.607,151.996 586.349,150.533 C585.764,149.895 585.147,149.292 584.516,148.702 C582.968,149.4 581.51,150.153 580.099,151.018 C579.605,150.613 579.079,150.249 578.557,149.88 C578.021,149.532 577.486,149.184 576.926,148.874 C577.273,147.283 577.519,145.694 577.694,144.047 C576.917,143.669 576.13,143.314 575.323,143.005 C574.14,144.187 573.037,145.454 572.038,146.745 C571.426,146.559 570.811,146.385 570.188,146.247 C569.565,146.103 568.937,145.982 568.304,145.891 C568.052,144.298 567.709,142.694 567.273,141.117 C566.412,141.031 565.545,141.003 564.682,141 C564.005,142.538 563.438,144.101 562.978,145.681 C562.339,145.716 561.703,145.799 561.071,145.885 C560.439,145.98 559.81,146.092 559.188,146.238 C558.372,144.826 557.484,143.492 556.504,142.154 C555.678,142.4 554.855,142.661 554.051,142.98 C553.97,144.646 554.012,146.334 554.14,147.955 C553.568,148.238 552.99,148.512 552.439,148.837 C551.875,149.141 551.342,149.494 550.804,149.838 C549.553,148.844 548.208,147.876 546.826,147.009 C546.135,147.53 545.476,148.09 544.832,148.666 C545.38,150.269 546,151.793 546.73,153.277 C546.28,153.731 545.869,154.222 545.456,154.71 C545.056,155.208 544.664,155.713 544.302,156.24 C542.75,155.747 541.193,155.36 539.565,155.032 C539.121,155.771 538.695,156.522 538.311,157.296 C539.386,158.587 540.533,159.795 541.736,160.912 C541.488,161.501 541.266,162.101 541.066,162.707 C540.874,163.317 540.679,163.927 540.54,164.551 C538.922,164.652 537.304,164.846 535.689,165.134 C535.53,165.983 535.407,166.842 535.333,167.703 C536.797,168.518 538.312,169.23 539.833,169.835 C539.827,170.474 539.817,171.114 539.863,171.752 C539.89,172.391 539.962,173.025 540.037,173.661 C538.575,174.341 537.141,175.108 535.727,175.962 C535.898,176.807 536.086,177.647 536.325,178.476 C537.983,178.705 539.658,178.823 541.29,178.842 C541.513,179.44 541.739,180.04 542.008,180.619 C542.259,181.208 542.559,181.773 542.856,182.338 C541.745,183.494 540.66,184.741 539.667,186.037 C540.12,186.774 540.619,187.483 541.134,188.177 C542.776,187.784 544.358,187.301 545.899,186.715 C546.309,187.207 546.76,187.66 547.21,188.115 C547.664,188.563 548.136,188.995 548.626,189.406 C547.997,190.9 547.462,192.424 546.987,194.012 C547.685,194.524 548.394,195.015 549.128,195.47 C550.515,194.51 551.817,193.491 553.044,192.389 C553.607,192.692 554.185,192.963 554.769,193.223 C555.359,193.467 555.948,193.717 556.557,193.915 C556.507,195.538 556.553,197.159 556.687,198.8 C557.519,199.033 558.36,199.239 559.212,199.391 C560.158,198.015 561.01,196.561 561.752,195.112 C562.389,195.173 563.023,195.244 563.663,195.256 C564.301,195.295 564.941,195.273 565.58,195.263 C566.122,196.768 566.757,198.295 567.475,199.762 C568.337,199.681 569.19,199.551 570.041,199.402 C570.414,197.747 570.692,196.131 570.853,194.484 C571.474,194.329 572.085,194.143 572.691,193.937 C573.292,193.726 573.896,193.509 574.48,193.248 C575.532,194.473 576.665,195.656 577.866,196.768 C578.643,196.39 579.395,195.958 580.132,195.506 C579.899,193.843 579.561,192.214 579.122,190.628 C579.642,190.258 580.146,189.863 580.635,189.451 C581.126,189.043 581.594,188.606 582.054,188.162 C583.477,188.919 584.956,189.603 586.488,190.214 C587.066,189.571 587.615,188.905 588.139,188.219 C587.303,186.744 586.42,185.362 585.428,184.036 C585.784,183.505 586.102,182.949 586.419,182.394 C586.715,181.829 587.016,181.264 587.271,180.678 C588.885,180.877 590.496,180.979 592.148,180.998 C592.454,180.192 592.737,179.374 592.969,178.542 C591.689,177.472 590.314,176.489 588.944,175.616 C589.065,174.988 589.189,174.361 589.265,173.725 z M583.93,173.015 C583.616,175.384 582.855,177.7 581.701,179.805 C580.548,181.909 578.998,183.794 577.168,185.334 C575.335,186.875 573.223,188.067 570.954,188.843 C568.68,189.631 566.26,189.968 563.875,189.878 C561.487,189.785 559.116,189.243 556.916,188.287 C554.714,187.336 552.692,185.965 550.989,184.281 C549.283,182.598 547.898,180.602 546.921,178.42 C545.938,176.242 545.359,173.849 545.238,171.463 C545.111,169.075 545.429,166.668 546.179,164.392 C546.925,162.115 548.098,159.972 549.621,158.119 C551.141,156.264 553.003,154.698 555.085,153.524 C557.164,152.355 559.472,151.549 561.854,151.211 C564.227,150.865 566.651,150.958 568.985,151.493 C571.316,152.026 573.556,152.995 575.543,154.341 C577.532,155.685 579.267,157.398 580.628,159.362 C581.993,161.326 582.981,163.541 583.555,165.88 C584.114,168.222 584.246,170.644 583.93,173.015" fill="#000000"/>
    <path d="M503.131,176.047 C510.357,176.047 516.214,170.19 516.214,162.964 C516.214,155.739 510.357,149.882 503.131,149.882 C495.906,149.882 490.048,155.739 490.048,162.964 C490.048,170.19 495.906,176.047 503.131,176.047 z M503.123,174.945 C496.502,174.945 491.135,169.578 491.135,162.957 C491.135,156.336 496.502,150.968 503.123,150.968 C509.744,150.968 515.112,156.336 515.112,162.957 C515.112,169.578 509.744,174.945 503.123,174.945 z M503.123,172.758 C508.537,172.758 512.925,168.37 512.925,162.957 C512.925,157.543 508.537,153.155 503.123,153.155 C497.71,153.155 493.322,157.543 493.322,162.957 C493.322,168.37 497.71,172.758 503.123,172.758 z M500.924,186.792 C500.077,185.931 499.491,184.547 498.96,183.476 C498.143,183.3 497.351,183.033 496.564,182.755 C495.805,183.175 494.066,184.583 493.115,184.706 C492.505,184.671 491.651,183.857 491.191,183.591 C490.732,183.326 489.7,182.961 489.292,182.498 C489.198,182.191 489.182,182.181 489.148,181.777 C489.113,181.365 489.146,180.946 489.162,180.533 C489.218,179.071 489.187,179.7 489.28,178.24 C488.793,177.785 488.348,177.291 487.9,176.798 C486.883,176.89 485.863,176.918 484.843,176.938 C484.419,176.913 483.994,176.954 483.593,176.789 C483.082,176.454 482.749,175.322 482.484,174.862 C482.218,174.402 481.507,173.57 481.385,172.966 C481.317,172.455 483.593,169.142 483.593,169.142 L483.65,169.156 C483.445,168.554 483.307,167.933 483.174,167.312 C483.154,167.332 483.132,167.351 483.111,167.37 C483.111,167.37 479.562,165.709 479.288,165.163 C479.013,164.617 479.291,163.471 479.291,162.94 C479.291,162.409 479.091,161.333 479.288,160.748 C479.484,160.272 483.111,158.541 483.111,158.541 L483.174,158.6 C483.285,157.975 483.466,157.366 483.649,156.759 L483.603,156.77 L483.615,156.767 L483.592,156.772 C483.592,156.772 481.349,153.558 481.385,152.949 C481.42,152.339 482.234,151.485 482.499,151.025 C482.765,150.565 483.13,149.533 483.592,149.125 C483.9,149.031 483.91,149.015 484.313,148.981 C484.725,148.946 485.145,148.979 485.557,148.995 C487.046,149.053 486.41,149.022 487.897,149.117 C488.348,148.623 488.792,148.116 489.288,147.665 C489.27,147.415 489.249,147.166 489.235,146.917 C489.199,146.283 488.984,144.18 489.302,143.418 C489.637,142.908 490.769,142.575 491.229,142.309 C491.688,142.044 492.52,141.333 493.125,141.211 C494.216,141.502 495.633,142.543 496.562,143.157 C497.341,142.849 498.153,142.648 498.961,142.435 C499.341,141.655 499.733,140.88 500.17,140.129 C500.358,139.807 500.592,139.335 500.924,139.121 C501.469,138.847 502.616,139.124 503.147,139.124 C503.678,139.124 504.754,138.925 505.338,139.121 C505.832,139.527 506.136,140.212 506.434,140.758 C506.687,141.223 506.928,141.695 507.165,142.169 C508.182,142.285 509.169,142.572 510.15,142.856 C510.912,142.449 512.24,141.337 513.128,141.214 C513.732,141.336 514.564,142.047 515.024,142.312 C515.484,142.578 516.615,142.911 516.951,143.421 C517.238,144.439 517.103,145.518 517.039,146.558 C517.993,147.288 518.817,148.166 519.632,149.044 C520.31,149.074 522.019,148.818 522.67,149.13 C523.132,149.538 523.497,150.57 523.763,151.03 C524.028,151.489 524.842,152.344 524.877,152.953 C524.647,153.901 524.048,154.707 523.519,155.509 C524.01,156.702 524.281,157.967 524.549,159.224 L524.552,159.247 C525.281,159.742 526.434,160.024 526.959,160.748 C527.155,161.333 526.956,162.409 526.956,162.94 C526.956,163.471 527.233,164.617 526.959,165.163 C526.299,165.859 525.393,166.249 524.551,166.675 L524.549,166.687 C524.342,167.964 523.95,169.199 523.515,170.414 C523.884,171.135 524.761,172.124 524.876,172.961 C524.754,173.565 524.044,174.397 523.778,174.857 C523.512,175.317 523.18,176.449 522.669,176.784 C522.274,176.947 521.838,176.927 521.419,176.933 C520.221,176.915 520.82,176.933 519.623,176.877 C518.854,177.794 517.95,178.58 517.041,179.351 C517.01,180.049 517.281,181.828 516.96,182.495 C516.552,182.957 515.521,183.323 515.061,183.588 C514.601,183.854 513.747,184.667 513.137,184.703 C512.027,184.406 511.085,183.69 510.143,183.058 C509.172,183.389 508.165,183.59 507.155,183.764 C506.758,184.398 505.985,186.35 505.338,186.792 C504.754,186.989 503.678,186.789 503.147,186.789 C502.616,186.789 501.469,187.067 500.924,186.792 z" fill="#000000"/>
    <path d="M520.272,359.045 L510.823,347.237 L536.516,341.38 L533.119,356.116 L526.918,357.515 z M515.711,309.396 C536.181,304.729 548.992,284.352 544.325,263.883 C539.659,243.413 519.282,230.602 498.812,235.268 C478.342,239.935 465.531,260.312 470.198,280.781 C474.864,301.251 495.241,314.062 515.711,309.396 z M472.148,280.337 C467.728,260.944 479.864,241.64 499.257,237.219 C518.649,232.798 537.954,244.935 542.374,264.327 C546.795,283.72 534.659,303.024 515.266,307.445 C495.874,311.866 476.569,299.729 472.148,280.337 z z M513.211,298.431 C527.626,295.145 536.647,280.796 533.361,266.382 C530.075,251.968 515.726,242.947 501.312,246.233 C486.897,249.519 477.876,263.867 481.162,278.282 C484.448,292.696 498.797,301.717 513.211,298.431 z M466.301,349.86 C462.595,347.503 458.87,345.176 455.146,342.847 C456.089,337.876 455.546,330.155 457.641,325.482 L457.67,325.428 C450.226,318.67 444.879,310.08 440.688,301.023 L438.213,301.587 L423.477,298.189 C422.524,293.902 421.535,289.623 420.548,285.343 C424.92,282.373 429.752,276.59 434.817,274.759 C434.365,264.917 436.173,255.158 439.569,245.944 C437.303,244.241 435.974,241.645 434.542,239.263 C431.966,234.979 432.352,235.629 429.733,231.371 C432.091,227.665 434.417,223.94 436.746,220.216 C437.653,220.315 438.56,220.423 439.468,220.514 C442.983,220.863 450.527,221.104 453.936,222.632 C460.663,214.986 469.277,209.443 478.434,205.159 C476.886,198.369 477.862,203.908 481.404,188.547 C490.123,186.579 485.841,187.556 494.251,185.619 C504.1,197.927 502.579,192.512 504.127,199.302 C514.288,198.781 524.325,200.849 533.791,204.436 C535.79,201.966 538.777,200.543 541.452,198.94 C544.417,197.163 545.28,196.618 548.222,194.803 C551.928,197.161 555.653,199.487 559.377,201.816 C559.003,205.21 558.706,208.619 558.715,212.036 C558.717,213.117 558.862,214.26 558.521,215.307 C558.11,216.571 557.147,217.744 556.448,218.853 C563.911,225.583 569.405,234.084 573.61,243.143 C576.475,242.704 579.306,243.609 582.065,244.295 C586.899,245.497 586.201,245.319 591.046,246.475 C591.998,250.762 592.989,255.041 593.975,259.321 C591.305,261.466 588.671,263.667 586.253,266.097 C585.489,266.865 584.762,267.78 583.768,268.275 C582.547,268.883 581.006,269.036 579.692,269.334 C580.204,279.366 578.414,289.324 574.954,298.72 C577.22,300.423 578.549,303.019 579.981,305.401 C582.557,309.685 582.171,309.035 584.79,313.293 C582.432,316.998 580.106,320.724 577.777,324.447 C576.87,324.348 575.963,324.241 575.055,324.15 C571.54,323.801 563.996,323.56 560.587,322.031 C553.86,329.677 545.246,335.221 536.089,339.505 L536.516,341.38 L510.823,347.237 L510.396,345.362 C508.114,345.495 505.835,345.392 503.554,345.322 C495.52,345.021 487.743,342.842 480.256,340.041 L479.123,341.843 z M518.947,323.554 C521.776,322.909 523.546,320.092 522.901,317.263 C522.255,314.434 519.439,312.663 516.609,313.309 C513.78,313.954 512.01,316.771 512.655,319.6 C513.301,322.429 516.117,324.2 518.947,323.554 z M461.476,288.166 C464.306,287.521 466.076,284.704 465.43,281.875 C464.785,279.046 461.968,277.275 459.139,277.921 C456.31,278.566 454.54,281.383 455.185,284.212 C455.831,287.041 458.647,288.811 461.476,288.166 z M555.384,266.743 C558.213,266.098 559.983,263.281 559.338,260.452 C558.692,257.623 555.876,255.853 553.047,256.498 C550.217,257.143 548.447,259.96 549.093,262.789 C549.738,265.618 552.555,267.389 555.384,266.743 z M497.524,229.647 C500.353,229.001 502.123,226.185 501.478,223.356 C500.832,220.526 498.016,218.756 495.187,219.402 C492.358,220.047 490.587,222.864 491.233,225.693 C491.878,228.522 494.695,230.292 497.524,229.647 z" fill="#000000"/>
    <path d="M464.962,179.716 C465.011,178.351 464.883,176.99 464.664,175.644 C464.382,174.309 464.011,172.994 463.473,171.738 C465.897,169.582 468.044,166.989 469.8,164.025 C468.531,162.079 467.058,160.257 465.347,158.692 C461.933,159.696 458.831,161.242 456.167,163.224 C455.027,162.475 453.772,161.913 452.492,161.449 C451.21,160.98 449.87,160.699 448.52,160.503 C447.86,157.364 446.683,154.166 444.997,151.19 C442.675,151.275 440.396,151.71 438.172,152.348 C437.328,155.828 437.118,159.294 437.482,162.563 C436.294,163.232 435.145,163.978 434.118,164.877 C433.092,165.772 432.124,166.749 431.331,167.859 C428.226,166.819 424.939,166.281 421.491,166.222 C420.403,168.272 419.628,170.478 419.075,172.736 C421.667,175.206 424.56,177.121 427.588,178.435 C427.54,179.801 427.668,181.161 427.887,182.507 C428.168,183.842 428.539,185.157 429.078,186.413 C426.653,188.57 424.506,191.162 422.75,194.126 C424.019,196.072 425.491,197.894 427.203,199.46 C430.617,198.455 433.719,196.91 436.383,194.928 C437.523,195.676 438.778,196.239 440.057,196.703 C441.34,197.172 442.68,197.452 444.03,197.648 C444.691,200.787 445.868,203.986 447.554,206.962 C449.876,206.876 452.154,206.442 454.378,205.803 C455.221,202.324 455.432,198.857 455.068,195.588 C456.256,194.919 457.405,194.174 458.432,193.274 C459.458,192.379 460.426,191.402 461.219,190.293 C464.324,191.332 467.611,191.871 471.059,191.93 C472.147,189.88 472.922,187.674 473.475,185.416 C470.883,182.945 467.991,181.031 464.962,179.716 z M454.099,177.616 C454.585,180.353 453.621,183.315 451.436,185.116 C449.373,186.939 446.221,187.527 443.641,186.571 C440.954,185.679 438.987,183.264 438.452,180.536 C437.966,177.797 438.931,174.837 441.115,173.035 C443.177,171.213 446.328,170.625 448.908,171.581 C451.596,172.472 453.564,174.889 454.099,177.616" fill="#000000"/>
    <path d="M383.746,233.536 C393.074,233.536 400.636,225.974 400.636,216.646 C400.636,207.318 393.074,199.756 383.746,199.756 C374.418,199.756 366.856,207.318 366.856,216.646 C366.856,225.974 374.418,233.536 383.746,233.536 z M383.739,263.292 C381.657,263.186 380.542,261.315 379.833,259.579 L379.832,259.573 C379.069,257.522 379.359,255.316 379.116,253.185 L379.086,253.174 C378.76,251.887 376.977,250.713 375.908,250.101 C373.688,248.829 371.137,247.958 368.603,247.606 C368.165,247.545 367.722,247.524 367.281,247.484 C366.35,247.495 365.292,247.435 364.45,247.924 L364.333,247.882 L364.33,247.857 C363.638,248.491 363.03,249.209 362.427,249.926 C359.857,252.989 356.239,254.183 354.345,252.594 L354.335,252.585 C352.606,250.919 353.162,248.292 354.126,246.368 C353.122,246.964 352.032,247.169 350.904,247.326 C349.703,247.376 348.67,247.044 347.807,246.208 L347.799,246.197 C346.209,244.303 347.404,240.685 350.466,238.115 C351.188,237.517 351.872,236.874 352.536,236.213 L352.51,236.21 L352.47,236.098 C353.261,234.622 352.872,232.103 352.524,230.558 C352.07,228.54 351.329,226.55 350.292,224.757 C349.892,224.066 349.398,223.337 348.854,222.745 C348.444,222.298 347.893,221.777 347.279,221.626 L347.21,221.432 C346.371,221.344 345.529,221.304 344.687,221.269 L344.338,221.28 C340.341,221.28 337.1,219.275 337.1,216.803 L337.1,216.79 C337.116,216.27 337.205,215.733 337.425,215.258 C338.426,213.105 341.789,212.193 343.938,212.125 C345.03,212.143 346.117,212.048 347.206,211.971 L347.229,211.907 C347.365,211.873 347.509,211.865 347.636,211.805 C348.923,211.202 349.799,209.873 350.48,208.684 C351.518,206.871 352.259,204.862 352.713,202.824 C352.911,201.933 353.058,200.972 353.097,200.057 C353.102,197.969 353.254,197.889 351.939,196.594 C351.465,196.128 350.978,195.702 350.466,195.277 C347.404,192.707 346.209,189.089 347.799,187.195 L347.807,187.185 C349.491,185.388 352.127,186.07 354.059,186.993 C353.039,184.965 352.53,182.458 354.235,180.707 L354.245,180.699 C356.139,179.11 359.757,180.304 362.327,183.366 C362.924,184.09 363.568,184.772 364.23,185.436 L364.233,185.411 L364.35,185.369 C365.846,186.162 368.382,185.774 369.948,185.425 C371.985,184.97 373.995,184.23 375.808,183.192 C376.887,182.574 378.662,181.421 378.986,180.119 L379.033,180.102 C379.204,178.244 379.073,176.397 379.512,174.572 C379.582,174.28 379.622,174.015 379.735,173.743 C380.259,172.258 381.2,170.66 382.787,170.131 C383.14,170.013 383.489,170.025 383.853,170 C386.325,170 388.329,173.241 388.329,177.239 C388.365,179.153 388.318,178.197 388.469,180.105 L388.676,180.179 C389.035,181.453 390.739,182.574 391.807,183.192 C393.599,184.229 395.589,184.97 397.608,185.425 C398.871,185.709 400.202,185.897 401.501,185.793 C402.033,185.75 402.67,185.65 403.147,185.37 L403.26,185.411 L403.263,185.438 C403.946,184.79 404.565,184.09 405.165,183.366 C407.735,180.304 411.353,179.11 413.247,180.699 L413.258,180.707 C414.961,182.347 414.451,184.959 413.495,186.864 C415.429,185.865 417.993,185.429 419.685,187.085 L419.694,187.095 C421.283,188.989 420.089,192.607 417.026,195.177 C416.304,195.776 415.62,196.419 414.956,197.08 L414.982,197.083 L415.024,197.2 C414.23,198.696 414.619,201.232 414.968,202.798 C415.422,204.835 416.162,206.845 417.2,208.658 C417.818,209.737 418.971,211.512 420.274,211.836 L420.284,211.866 C421.843,212.066 423.416,211.943 424.972,212.159 C426.929,212.432 429.061,213.382 430.067,215.158 C430.328,215.619 430.356,216.189 430.392,216.703 C430.392,219.175 427.152,221.179 423.154,221.179 L422.812,221.169 C421.965,221.17 421.125,221.252 420.284,221.329 L420.213,221.526 C418.94,221.885 417.818,223.589 417.2,224.657 C416.164,226.449 415.422,228.439 414.968,230.458 C414.683,231.721 414.495,233.052 414.6,234.35 C414.643,234.883 414.742,235.52 415.022,235.997 L414.982,236.11 L414.954,236.113 C415.602,236.796 416.303,237.415 417.026,238.015 C420.089,240.585 421.283,244.203 419.694,246.097 L419.685,246.108 C419.01,246.881 418.074,247.162 417.081,247.205 L416.588,247.226 C415.526,247.142 414.51,246.835 413.563,246.361 C414.567,248.373 415.044,250.856 413.358,252.585 L413.347,252.594 C411.453,254.183 407.835,252.989 405.265,249.926 C404.681,249.189 404.015,248.527 403.363,247.852 L403.36,247.882 L403.247,247.922 C402.405,247.442 401.377,247.497 400.447,247.484 C400.011,247.524 399.572,247.545 399.138,247.606 C396.33,248 393.105,249.164 390.798,250.812 C390.065,251.335 389.005,252.183 388.776,253.113 L388.551,253.194 C388.425,254.142 388.424,255.1 388.429,256.054 C388.429,260.052 386.425,263.292 383.953,263.292 L383.94,263.292 L383.846,263.285 L383.753,263.292 z" fill="#040404"/>
    <path d="M321.962,229.823 C321.892,228.918 321.93,228 321.766,227.103 C323.906,226.129 326.091,224.916 328.056,223.513 C327.754,222.163 327.328,220.85 326.817,219.564 C324.321,219.404 321.79,219.549 319.449,219.904 C318.957,219.14 318.553,218.315 317.974,217.61 C317.453,216.862 316.86,216.172 316.232,215.513 C317.443,213.411 318.385,211.259 319.208,208.909 C318.162,208.021 317.067,207.173 315.891,206.457 C313.764,207.81 311.843,209.34 310.117,211.071 C309.312,210.641 308.442,210.365 307.589,210.047 C306.719,209.79 305.838,209.54 304.944,209.384 C304.674,207.054 304.184,204.611 303.46,202.295 C302.088,202.196 300.715,202.155 299.343,202.268 C298.419,204.565 297.771,207.032 297.383,209.384 C296.488,209.54 295.608,209.79 294.738,210.047 C293.886,210.365 293.016,210.641 292.21,211.071 C290.597,209.297 288.799,207.661 286.844,206.208 C285.644,206.891 284.561,207.748 283.475,208.592 C284.148,211.071 284.969,213.327 286.095,215.513 C285.467,216.173 284.875,216.862 284.353,217.61 C283.774,218.315 283.37,219.14 282.878,219.904 C280.576,219.436 278.16,219.166 275.68,219.117 C275.192,220.409 274.69,221.698 274.388,223.049 C276.3,224.645 278.421,226.007 280.562,227.104 C280.397,228.001 280.435,228.918 280.365,229.823 C280.435,230.729 280.397,231.646 280.562,232.543 C278.422,233.518 276.236,234.73 274.271,236.134 C274.574,237.484 274.999,238.797 275.511,240.082 C278.006,240.243 280.538,240.097 282.878,239.743 C283.37,240.507 283.774,241.331 284.353,242.037 C284.875,242.785 285.467,243.474 286.095,244.134 C284.884,246.236 283.942,248.387 283.119,250.738 C284.165,251.626 285.261,252.474 286.436,253.19 C288.563,251.836 290.484,250.307 292.211,248.576 C293.016,249.005 293.886,249.282 294.738,249.6 C295.608,249.857 296.489,250.107 297.383,250.263 C297.653,252.592 298.143,255.036 298.867,257.351 C300.239,257.451 301.612,257.492 302.985,257.379 C303.908,255.082 304.556,252.614 304.944,250.263 C305.839,250.107 306.719,249.857 307.589,249.6 C308.442,249.282 309.312,249.005 310.117,248.575 C311.731,250.35 313.528,251.986 315.483,253.439 C316.683,252.756 317.767,251.899 318.852,251.055 C318.179,248.575 317.358,246.32 316.232,244.134 C316.86,243.474 317.453,242.785 317.974,242.037 C318.553,241.331 318.957,240.507 319.449,239.742 C321.752,240.211 324.167,240.48 326.648,240.53 C327.135,239.238 327.637,237.948 327.939,236.598 C326.027,235.002 323.907,233.639 321.766,232.543 C321.93,231.646 321.892,230.729 321.962,229.823 z M305.129,242.024 C302.591,242.849 299.736,242.849 297.198,242.024 C294.68,241.171 292.34,239.566 290.793,237.351 C289.177,235.179 288.371,232.531 288.329,229.823 C288.371,227.115 289.177,224.468 290.793,222.296 C292.34,220.081 294.68,218.476 297.198,217.622 C299.736,216.798 302.591,216.798 305.129,217.622 C307.647,218.476 309.987,220.081 311.534,222.296 C313.151,224.468 313.956,227.115 313.998,229.823 C313.956,232.531 313.151,235.179 311.534,237.351 C309.987,239.566 307.647,241.171 305.129,242.024" fill="#000000"/>
    <path d="M329.546,415.071 C358.858,416.193 383.525,393.441 384.643,364.253 C385.76,335.064 362.904,310.493 333.592,309.371 C304.281,308.249 279.613,331.001 278.496,360.189 C277.378,389.378 300.234,413.949 329.546,415.071 z M327.065,479.127 C316.166,478.709 307.648,470.09 308.04,459.874 C308.256,454.672 307.899,449.123 305.071,444.602 C305.018,444.518 304.308,443.559 304.091,443.396 C302.947,442.537 301.555,442.351 300.242,441.877 C294.565,442.733 290.544,446.919 286.857,450.98 C286.672,451.288 286.437,451.563 286.222,451.85 C279.901,459.885 267.828,460.932 259.256,454.189 L259.21,454.152 C250.638,447.409 248.814,435.429 255.135,427.394 C257.89,423.965 264.31,414.254 260.754,409.387 C258.905,406.856 255.006,406.772 252.226,406.508 C249.178,406.448 246.183,407.107 243.222,407.748 C242.892,407.889 242.542,407.972 242.2,408.078 C232.363,410.863 221.981,404.613 219.01,394.12 L218.994,394.063 C216.023,383.569 221.588,372.805 231.425,370.02 C236.303,368.636 241.415,366.721 244.791,362.745 C245.611,361.779 246.642,360.513 246.694,359.178 C246.918,353.45 236.732,348.352 232.314,346.79 C222.719,343.261 217.993,332.103 221.757,321.867 L221.777,321.811 C225.542,311.575 236.372,306.138 245.967,309.667 C250.077,311.225 262.314,314.645 265.2,308.775 C267.686,303.722 263.104,295.439 260.34,291.396 C254.652,282.902 257.387,271.096 266.449,265.028 L266.498,264.995 C275.56,258.927 287.518,260.894 293.206,269.388 C296.388,274.117 300.462,279.154 306.291,280.447 C307.614,279.962 309.009,279.672 310.343,279.253 C314.471,275.001 315.311,268.703 315.573,263.055 C315.964,252.839 325.115,244.896 336.014,245.313 L336.072,245.315 C346.971,245.733 355.488,254.352 355.097,264.568 C355.077,264.885 355.056,265.202 355.035,265.519 C355.03,265.554 355.025,265.59 355.02,265.625 C355.24,270.722 355.286,276.802 358.795,280.937 C359.41,281.662 362.098,282.273 363.121,282.659 C369.002,281.642 373.4,277.113 376.917,272.593 C383.238,264.558 395.311,263.511 403.882,270.254 L403.929,270.29 C412.5,277.034 414.325,289.014 408.004,297.049 C407.774,297.324 407.561,297.611 407.31,297.868 C404.362,301.889 401.697,306.439 401.445,311.536 C401.399,312.468 401.285,312.676 401.477,313.498 C401.677,314.352 402.516,315.394 403.183,315.945 C407.981,319.906 415.565,317.809 420.938,316.364 C430.775,313.579 441.158,319.829 444.129,330.322 L444.145,330.379 C447.116,340.873 441.55,351.637 431.713,354.422 C426.884,355.872 421.268,357.766 418.097,362.005 C417.442,362.881 416.435,364.064 416.452,365.231 C416.547,371.757 425.706,375.792 430.824,377.652 C440.419,381.181 445.146,392.339 441.381,402.575 L441.361,402.631 C437.596,412.867 426.766,418.304 417.171,414.775 C416.827,414.639 416.478,414.517 416.145,414.352 C413.307,413.278 410.283,412.866 407.295,412.443 C404.296,412.349 398.684,412.455 397.583,416.224 C395.953,421.802 399.896,428.682 402.798,433.046 C408.486,441.54 405.751,453.346 396.689,459.414 L396.64,459.447 C387.578,465.515 375.621,463.548 369.932,455.054 C369.744,454.753 369.537,454.465 369.373,454.15 C366.531,450.408 362.007,444.675 356.859,443.991 C355.532,444.478 354.133,444.769 352.794,445.189 C348.666,449.441 347.826,455.739 347.564,461.387 C347.173,471.603 338.022,479.546 327.123,479.129 z" fill="#040404"/>
    <path d="M486.698,506.038 C491.337,490.984 482.895,475.02 467.842,470.381 C452.788,465.742 436.824,474.184 432.185,489.237 C427.546,504.29 435.988,520.254 451.041,524.894 C466.094,529.533 482.058,521.091 486.698,506.038 z z M463.852,560.406 C462.938,560.446 462.024,560.462 461.11,560.48 L457.44,548.12 C454.545,548.119 451.688,547.622 448.851,547.098 L442.141,558.143 C441.269,557.868 440.405,557.57 439.54,557.274 L440.316,544.453 C437.576,543.414 435.056,541.903 432.56,540.388 L422.555,548.548 C421.804,548.026 421.068,547.484 420.33,546.945 L425.486,534.787 C423.46,532.968 421.768,530.826 420.078,528.702 L419.968,528.547 L407.364,532.937 C406.838,532.19 406.331,531.429 405.823,530.669 L415.171,520.637 L415.121,520.539 C413.966,518.203 413.08,515.751 412.29,513.271 L398.589,513.081 C398.35,512.198 398.134,511.31 397.916,510.422 L410.393,504.06 C410.074,501.499 410.058,498.918 410.134,496.344 L396.878,491.309 C396.955,490.398 397.056,489.49 397.154,488.581 L411.421,486.824 C411.931,484.368 412.791,482.006 413.636,479.651 L402.829,470.324 C403.212,469.494 403.618,468.675 404.022,467.854 L417.946,471.064 C419.236,468.858 420.856,466.873 422.466,464.897 L415.62,452.649 C416.265,452.001 416.926,451.37 417.586,450.737 L429.267,458.317 C431.349,456.622 433.575,455.119 435.912,453.801 L433.746,440.434 C434.573,440.045 435.41,439.678 436.247,439.309 L444.309,450.001 L444.337,449.99 C446.939,449.051 449.648,448.479 452.363,447.984 L454.822,435.089 C455.733,435.007 456.645,434.949 457.557,434.888 L461.376,447.364 C464.238,447.464 467.124,447.707 469.917,448.369 L476.517,437.295 C478.267,437.777 477.387,437.528 479.156,438.041 L478.48,451.024 C481.12,452.056 483.601,453.439 486.025,454.896 L496.19,446.746 C496.915,447.303 497.625,447.878 498.337,448.452 L493.139,460.429 C495.259,462.303 497.028,464.522 498.787,466.726 L511.377,462.459 C511.868,463.23 512.339,464.014 512.811,464.796 L503.58,474.537 C504.812,476.969 505.797,479.514 506.594,482.118 L520.434,482.427 C520.632,483.32 520.806,484.217 520.982,485.114 L508.512,491.342 C508.832,493.912 508.857,496.501 508.783,499.085 L521.859,504.178 C521.739,505.084 521.596,505.987 521.455,506.89 L507.537,508.485 L507.535,508.496 C507.016,511.016 506.136,513.44 505.27,515.857 L515.871,525.162 C515.449,525.973 515.005,526.772 514.564,527.573 L501.023,524.332 C499.71,526.593 498.051,528.622 496.404,530.643 L503.089,542.844 C502.415,543.461 501.725,544.061 501.037,544.662 L489.672,537.151 C487.591,538.846 485.367,540.353 483.031,541.671 L485.092,555.105 C484.247,555.455 483.394,555.782 482.541,556.111 L474.655,545.469 L474.576,545.498 C471.934,546.457 469.179,547.026 466.42,547.525 z" fill="#000000"/>
    <path d="M604.74,430.635 C625.705,430.635 642.699,413.64 642.699,392.676 C642.699,371.712 625.705,354.717 604.74,354.717 C583.776,354.717 566.782,371.712 566.782,392.676 C566.782,413.64 583.776,430.635 604.74,430.635 z M604.718,427.438 C585.507,427.438 569.934,411.865 569.934,392.654 C569.934,373.443 585.507,357.87 604.718,357.87 C623.928,357.87 639.502,373.443 639.502,392.654 C639.502,411.865 623.928,427.438 604.718,427.438 z M604.718,421.093 C620.424,421.093 633.156,408.36 633.156,392.654 C633.156,376.948 620.424,364.215 604.718,364.215 C589.012,364.215 576.279,376.948 576.279,392.654 C576.279,408.36 589.012,421.093 604.718,421.093 z M598.335,461.812 C595.88,459.314 594.178,455.297 592.637,452.191 C590.267,451.68 587.968,450.904 585.686,450.099 C583.485,451.317 578.438,455.401 575.68,455.758 C573.91,455.656 571.432,453.295 570.098,452.525 C568.763,451.754 565.771,450.695 564.587,449.354 C564.313,448.461 564.268,448.431 564.169,447.262 C564.068,446.065 564.162,444.849 564.208,443.652 C564.373,439.409 564.283,441.235 564.553,436.997 C563.139,435.678 561.847,434.243 560.548,432.813 C557.598,433.081 554.637,433.162 551.677,433.219 C550.447,433.148 549.214,433.267 548.05,432.788 C546.569,431.815 545.603,428.531 544.833,427.196 C544.062,425.862 542,423.448 541.646,421.695 C541.448,420.214 548.05,410.602 548.05,410.602 L548.218,410.641 C547.622,408.896 547.222,407.093 546.836,405.292 C546.777,405.35 546.715,405.405 546.653,405.46 C546.653,405.46 536.356,400.639 535.56,399.056 C534.764,397.472 535.569,394.146 535.569,392.605 C535.569,391.064 534.99,387.942 535.56,386.246 C536.129,384.866 546.653,379.842 546.653,379.842 L546.836,380.014 C547.156,378.2 547.682,376.432 548.214,374.672 L548.081,374.703 L548.115,374.694 L548.049,374.709 C548.049,374.709 541.542,365.385 541.644,363.616 C541.746,361.847 544.107,359.368 544.878,358.034 C545.648,356.7 546.707,353.707 548.049,352.523 C548.941,352.249 548.971,352.204 550.141,352.105 C551.337,352.004 552.553,352.098 553.75,352.145 C558.07,352.314 556.225,352.222 560.538,352.499 C561.849,351.066 563.135,349.593 564.575,348.285 C564.523,347.561 564.461,346.839 564.42,346.114 C564.317,344.275 563.693,338.174 564.614,335.964 C565.588,334.482 568.871,333.517 570.206,332.746 C571.54,331.976 573.954,329.914 575.707,329.559 C578.873,330.403 582.984,333.426 585.679,335.205 C587.94,334.312 590.296,333.73 592.64,333.11 C593.745,330.848 594.88,328.598 596.148,326.422 C596.694,325.485 597.373,324.118 598.335,323.496 C599.919,322.7 603.245,323.505 604.786,323.505 C606.327,323.505 609.449,322.926 611.144,323.496 C612.578,324.674 613.459,326.661 614.323,328.244 C615.059,329.594 615.757,330.965 616.445,332.339 C619.396,332.675 622.261,333.509 625.104,334.332 C627.316,333.152 631.17,329.924 633.745,329.568 C635.498,329.923 637.912,331.985 639.246,332.756 C640.581,333.526 643.865,334.492 644.838,335.973 C645.672,338.926 645.278,342.056 645.093,345.075 C647.863,347.192 650.253,349.739 652.617,352.287 C654.584,352.374 659.544,351.631 661.431,352.537 C662.772,353.721 663.831,356.713 664.602,358.048 C665.372,359.382 667.733,361.86 667.835,363.63 C667.168,366.38 665.431,368.717 663.896,371.046 C665.32,374.507 666.105,378.177 666.883,381.824 L666.893,381.89 C669.007,383.328 672.354,384.144 673.876,386.246 C674.445,387.942 673.867,391.064 673.867,392.605 C673.867,394.146 674.672,397.472 673.876,399.056 C671.963,401.074 669.332,402.207 666.888,403.442 L666.883,403.478 C666.283,407.183 665.145,410.767 663.884,414.291 C664.955,416.384 667.498,419.254 667.834,421.681 C667.479,423.434 665.417,425.848 664.647,427.183 C663.876,428.517 662.91,431.801 661.429,432.774 C660.283,433.247 659.018,433.187 657.802,433.205 C654.326,433.153 656.063,433.206 652.59,433.044 C650.36,435.703 647.738,437.984 645.099,440.222 C645.009,442.246 645.795,447.407 644.865,449.344 C643.682,450.685 640.689,451.745 639.354,452.515 C638.02,453.286 635.542,455.647 633.772,455.749 C630.55,454.888 627.819,452.81 625.086,450.976 C622.268,451.937 619.345,452.52 616.417,453.025 C615.264,454.864 613.02,460.53 611.144,461.812 C609.449,462.382 606.327,461.803 604.786,461.803 C603.245,461.803 599.919,462.608 598.335,461.812 z" fill="#000000"/>
    <path d="M490.418,420.035 C502.295,420.035 511.923,410.447 511.923,398.62 C511.923,386.793 502.295,377.205 490.418,377.205 C478.541,377.205 468.913,386.793 468.913,398.62 C468.913,410.447 478.541,420.035 490.418,420.035 z M490.418,418.995 C479.165,418.995 470.043,409.873 470.043,398.62 C470.043,387.367 479.165,378.245 490.418,378.245 C501.671,378.245 510.793,387.367 510.793,398.62 C510.793,409.873 501.671,418.995 490.418,418.995 z M490.418,415.37 C499.669,415.37 507.168,407.871 507.168,398.62 C507.168,389.369 499.669,381.87 490.418,381.87 C481.167,381.87 473.668,389.369 473.668,398.62 C473.668,407.871 481.167,415.37 490.418,415.37 z M490.406,445.99 C485.99,445.99 482.41,442.635 482.41,438.495 C482.417,436.387 482.187,434.147 480.972,432.362 C480.95,432.329 480.648,431.952 480.558,431.889 C480.081,431.56 479.515,431.506 478.976,431.334 C476.693,431.769 475.131,433.525 473.702,435.225 C473.632,435.352 473.541,435.467 473.458,435.587 C471.025,438.936 466.157,439.546 462.584,436.951 L462.565,436.937 C458.992,434.341 458.069,429.522 460.502,426.173 C461.563,424.743 464.01,420.714 462.496,418.801 C461.709,417.805 460.13,417.831 459.001,417.768 C457.767,417.79 456.565,418.104 455.377,418.409 C455.246,418.471 455.106,418.51 454.969,418.558 C451.032,419.837 446.734,417.47 445.37,413.27 L445.363,413.247 C443.998,409.047 446.083,404.606 450.02,403.327 C451.972,402.691 454.011,401.837 455.315,400.176 C455.632,399.772 456.03,399.245 456.03,398.703 C456.032,396.382 451.832,394.478 450.02,393.914 C446.083,392.635 443.998,388.193 445.362,383.993 L445.37,383.971 C446.734,379.771 451.032,377.403 454.969,378.682 C456.656,379.249 461.66,380.443 462.737,378.024 C463.664,375.941 461.682,372.66 460.502,371.067 C458.068,367.719 458.992,362.9 462.565,360.304 L462.584,360.29 C466.157,357.694 471.025,358.305 473.458,361.654 C474.819,363.518 476.545,365.493 478.924,365.926 C479.451,365.709 480.011,365.57 480.545,365.38 C482.149,363.596 482.391,361.034 482.41,358.745 C482.41,354.606 485.99,351.25 490.406,351.25 L490.429,351.25 C494.845,351.25 498.425,354.606 498.425,358.745 L498.41,359.174 C498.578,361.233 498.691,363.692 500.175,365.311 C500.435,365.594 501.532,365.8 501.952,365.94 C504.315,365.438 506.025,363.537 507.377,361.654 C509.811,358.305 514.679,357.694 518.252,360.29 L518.271,360.304 C521.844,362.9 522.767,367.719 520.334,371.068 C520.245,371.182 520.164,371.302 520.066,371.41 C518.936,373.082 517.928,374.965 517.905,377.031 C517.901,377.409 517.858,377.494 517.948,377.824 C518.042,378.167 518.398,378.575 518.676,378.787 C520.679,380.316 523.715,379.35 525.867,378.682 C529.804,377.403 534.101,379.771 535.466,383.971 L535.473,383.993 C536.838,388.193 534.753,392.635 530.816,393.914 C528.884,394.575 526.641,395.429 525.424,397.193 C525.173,397.557 524.784,398.051 524.809,398.523 C524.948,401.162 528.716,402.653 530.816,403.326 C534.753,404.606 536.838,409.047 535.473,413.247 L535.466,413.27 C534.101,417.469 529.804,419.837 525.867,418.558 C525.725,418.508 525.582,418.464 525.445,418.403 C524.28,418.012 523.05,417.892 521.835,417.768 C520.62,417.776 518.351,417.906 517.964,419.447 C517.391,421.73 519.093,424.452 520.334,426.173 C522.767,429.522 521.844,434.341 518.271,436.936 L518.252,436.95 C514.679,439.546 509.811,438.935 507.378,435.586 C507.297,435.468 507.209,435.354 507.137,435.23 C505.93,433.759 504.01,431.51 501.917,431.313 C501.387,431.53 500.826,431.67 500.29,431.86 C498.686,433.645 498.444,436.206 498.425,438.495 C498.425,442.635 494.846,445.99 490.43,445.99 z" fill="#040404"/>
    <path d="M631.43,293.355 L635.247,297.273 C637.092,295.511 638.447,293.407 639.111,290.926 C639.326,290.126 639.381,289.292 639.516,288.475 L634.017,287.945 C634.03,289.239 633.875,290.521 633.11,291.61 C632.822,292.02 632.439,292.356 632.104,292.729 z M622.946,300.285 L625.417,300.693 L625.938,295.287 C623.198,295.304 622.315,294.607 620.534,292.688 L616.653,296.47 C619.03,298.643 617.731,297.66 620.567,299.396 z M628.174,292.872 C631.094,291.845 632.628,288.646 631.602,285.726 C630.575,282.806 627.375,281.272 624.455,282.299 C621.536,283.326 620.001,286.525 621.028,289.445 C622.055,292.365 625.255,293.899 628.174,292.872 z M638.608,282.713 L639.06,283.999 L638.806,283.137 z M613.17,286.701 L618.612,287.225 C618.596,284.465 619.291,283.586 621.225,281.793 L617.382,277.849 C615.568,279.587 614.237,281.677 613.587,284.12 C613.367,284.948 613.308,285.811 613.169,286.656 z M631.465,281.804 L632.096,282.483 L636.076,278.604 C634.321,276.771 632.222,275.418 629.753,274.761 C628.925,274.541 628.062,274.482 627.217,274.343 L627.192,274.344 L626.658,279.882 C627.569,279.91 628.24,279.883 629.162,280.183 C629.583,280.32 629.948,280.589 630.342,280.791 z M633.744,315.706 C633.332,315.802 632.918,315.888 632.503,315.974 L629.785,310.685 C628.448,310.918 627.088,310.911 625.736,310.897 L623.678,316.509 C623.256,316.478 622.835,316.436 622.414,316.395 L621.596,310.336 C620.36,310.09 619.18,309.636 618.006,309.189 L617.926,309.154 L613.942,313.878 C613.556,313.705 613.175,313.521 612.793,313.339 L614.148,307.136 L614.104,307.109 C613.093,306.451 612.161,305.683 611.261,304.882 L605.759,308.041 C605.455,307.746 605.16,307.443 604.863,307.141 L608.33,301.661 C607.599,300.717 606.983,299.693 606.405,298.649 L599.937,299.774 C599.753,299.393 599.579,299.007 599.403,298.622 L604.671,294.554 C604.294,293.455 604.079,292.312 603.859,291.174 L597.353,290.011 C597.31,289.59 597.278,289.168 597.245,288.746 L603.549,286.736 C603.542,285.553 603.718,284.38 603.893,283.213 L598.275,279.951 C598.378,279.541 598.493,279.134 598.606,278.726 L605.048,278.987 C605.477,277.82 606.009,276.696 606.628,275.619 L602.609,270.807 C602.847,270.456 603.094,270.113 603.34,269.768 L609.075,272.123 L609.084,272.112 C609.899,271.124 610.843,270.257 611.807,269.418 L609.742,263.702 C610.085,263.454 610.435,263.216 610.784,262.976 L615.25,267.044 C616.414,266.408 617.62,265.823 618.889,265.427 L618.904,259.458 C619.714,259.237 619.305,259.346 620.131,259.133 L622.927,264.463 C624.222,264.251 625.536,264.216 626.846,264.224 L628.97,258.578 C629.39,258.628 629.809,258.69 630.228,258.75 L630.985,264.748 C632.272,264.994 633.501,265.46 634.722,265.922 L638.729,261.25 C639.106,261.441 639.479,261.642 639.852,261.843 L638.475,267.902 C639.54,268.579 640.533,269.361 641.465,270.21 L647.05,267.065 C647.34,267.374 647.621,267.69 647.903,268.006 L644.407,273.43 C645.141,274.378 645.762,275.404 646.343,276.45 L652.753,275.391 C652.92,275.781 653.076,276.174 653.233,276.567 L648.066,280.488 C648.706,282.784 648.427,281.627 648.904,283.959 L655.323,285.163 C655.346,285.585 655.358,286.009 655.371,286.432 L649.213,288.338 C649.224,289.548 649.042,290.748 648.863,291.942 L654.407,295.223 C654.284,295.628 654.151,296.03 654.018,296.432 L647.719,296.123 C647.29,297.29 646.76,298.415 646.141,299.492 L650.133,304.355 C649.88,304.694 649.617,305.026 649.355,305.359 L643.702,302.982 L643.677,303.012 C642.851,304.018 641.888,304.895 640.907,305.745 L642.925,311.482 C642.571,311.713 642.211,311.935 641.851,312.158 L637.471,308.102 C636.318,308.785 635.062,309.262 633.809,309.723 z" fill="#000000"/>
  </g>
  <defs/>
</svg>
